<?xml version="1.0" standalone="no"?>
<!DOCTYPE svg PUBLIC "-//W3C//DTD SVG 20010904//EN"
 "http://www.w3.org/TR/2001/REC-SVG-20010904/DTD/svg10.dtd">
<svg version="1.0" xmlns="http://www.w3.org/2000/svg"
 width="1080.000000pt" height="1080.000000pt" viewBox="0 0 1080.000000 1080.000000"
 preserveAspectRatio="xMidYMid meet">

<g transform="translate(0.000000,1080.000000) scale(0.100000,-0.100000)"
fill="#000000" stroke="none">
<path d="M8058 8690 c-250 -42 -450 -204 -573 -465 -57 -119 -80 -185 -64
-185 6 0 7 -5 3 -12 -4 -6 -8 -23 -9 -37 -16 -198 -24 -338 -19 -356 3 -13 1
-26 -5 -29 -11 -7 -14 25 -15 141 -1 22 -4 44 -8 49 -12 11 -10 -202 3 -314
21 -193 70 -358 165 -549 57 -115 79 -146 163 -240 54 -59 122 -129 153 -155
90 -77 215 -147 326 -185 390 -130 765 46 949 445 20 42 36 86 36 99 0 12 4
20 9 17 6 -4 7 2 3 16 -5 16 -4 20 4 15 8 -5 10 1 5 21 -4 15 -3 25 2 21 5 -3
9 7 9 21 1 15 4 47 9 72 5 32 4 41 -3 30 -9 -12 -11 -11 -11 8 0 12 6 22 14
22 18 0 28 88 27 239 0 128 -9 203 -22 195 -5 -3 -9 -1 -9 5 0 5 4 11 10 13
12 4 -19 145 -55 254 -38 117 -125 287 -195 386 -108 152 -273 299 -419 372
-157 80 -333 111 -483 86z m269 -46 c-3 -3 -12 -4 -19 -1 -8 3 -5 6 6 6 11 1
17 -2 13 -5z m13 -68 c156 -41 296 -125 422 -253 133 -135 211 -252 283 -422
35 -83 96 -283 105 -346 1 -5 5 -1 9 10 7 17 8 17 13 -8 3 -18 1 -27 -7 -27
-9 0 -11 -8 -7 -22 5 -21 6 -21 12 -2 9 25 24 -97 15 -125 -3 -11 -7 -73 -9
-138 -4 -127 -34 -268 -63 -290 -9 -7 -13 -19 -10 -28 4 -8 2 -15 -3 -15 -6 0
-10 -6 -10 -14 0 -8 -3 -16 -7 -18 -8 -3 -17 -19 -79 -137 -19 -35 -34 -61
-34 -57 0 4 -22 -19 -49 -51 -27 -32 -70 -73 -95 -92 -25 -19 -46 -41 -46 -48
0 -7 -8 -13 -17 -14 -24 -1 -35 -4 -123 -35 -96 -34 -241 -43 -346 -21 -162
35 -336 137 -459 269 -121 131 -232 315 -291 483 -15 44 -33 89 -40 100 -6 11
-10 28 -9 38 2 9 0 17 -5 17 -7 0 -19 53 -40 174 -15 92 -12 351 5 447 18 93
63 221 101 287 35 59 40 53 8 -10 -15 -29 -28 -63 -30 -75 -1 -11 -5 -32 -8
-45 -4 -12 9 9 27 48 90 188 238 335 397 395 127 48 267 57 390 25z m-510 -17
c0 -6 7 -8 17 -5 10 4 15 5 13 3 -60 -53 -168 -133 -163 -121 5 13 3 15 -8 9
-8 -5 -6 1 5 13 10 12 22 19 27 17 4 -3 30 12 58 32 28 21 46 40 41 41 -13 5
-13 22 0 22 6 0 10 -5 10 -11z m-359 -480 c-5 -13 -10 -19 -10 -12 -1 15 10
45 15 40 3 -2 0 -15 -5 -28z m-14 -51 c-3 -8 -6 -5 -6 6 -1 11 2 17 5 13 3 -3
4 -12 1 -19z m-10 -50 c-3 -7 -5 -2 -5 12 0 14 2 19 5 13 2 -7 2 -19 0 -25z
m-13 -99 c-4 -41 -9 -68 -12 -61 -5 16 8 145 14 139 2 -2 1 -37 -2 -78z m-34
-329 c0 -22 -2 -40 -4 -40 -2 0 -6 18 -8 40 -2 22 0 40 4 40 5 0 8 -18 8 -40z
m1817 -292 c-3 -8 -6 -5 -6 6 -1 11 2 17 5 13 3 -3 4 -12 1 -19z m-10 -100
c-3 -8 -6 -5 -6 6 -1 11 2 17 5 13 3 -3 4 -12 1 -19z m-7 -72 c0 -3 -4 -8 -10
-11 -5 -3 -10 -1 -10 4 0 6 5 11 10 11 6 0 10 -2 10 -4z m-440 -641 c-25 -13
-49 -24 -55 -24 -5 0 10 11 35 24 25 13 50 24 55 24 6 0 -10 -11 -35 -24z"/>
<path d="M9163 7445 c0 -22 2 -30 4 -17 2 12 2 30 0 40 -3 9 -5 -1 -4 -23z"/>
<path d="M5185 8410 c-11 -5 -40 -9 -65 -9 -26 -1 -52 -7 -58 -13 -9 -9 -54
-14 -143 -15 -72 -1 -136 -6 -142 -11 -16 -13 -99 -32 -137 -32 -17 0 -47 -10
-68 -23 -20 -12 -44 -27 -53 -32 -53 -33 -99 -66 -99 -73 0 -5 -22 -33 -50
-63 -47 -51 -140 -219 -161 -293 -10 -33 -76 -340 -89 -416 -4 -25 -15 -73
-24 -108 -9 -34 -14 -67 -11 -72 3 -5 -3 -42 -14 -82 -11 -40 -25 -98 -30
-128 -6 -30 -15 -82 -22 -115 -6 -33 -13 -89 -15 -124 -3 -62 -40 -227 -54
-246 -4 -5 -8 -21 -8 -35 0 -14 -7 -50 -15 -80 -46 -165 -57 -173 -222 -164
l-110 7 -12 -34 c-7 -19 -15 -54 -19 -79 -7 -46 -39 -120 -56 -131 -5 -3 -9
-8 -7 -10 5 -9 -16 -57 -40 -89 -14 -19 -18 -29 -8 -21 20 16 21 12 7 -24 -8
-22 -8 -26 3 -22 16 6 16 -11 -3 -96 -7 -31 -17 -54 -22 -51 -11 7 -10 -13 2
-37 8 -15 7 -19 -4 -19 -8 0 -18 -5 -22 -12 -4 -6 -3 -8 3 -5 5 3 10 0 10 -8
0 -13 -3 -13 -17 0 -16 14 -18 14 -23 -7 l-6 -22 -27 24 -27 25 18 -27 c9 -16
13 -28 8 -28 -13 0 -4 -50 11 -69 9 -12 7 -12 -14 -1 -24 13 -24 12 -10 -5 8
-10 14 -26 12 -36 -2 -11 5 -20 19 -24 15 -5 18 -10 10 -18 -16 -16 -13 -30 4
-23 12 4 14 -1 9 -27 -3 -18 -12 -68 -19 -112 -19 -103 -19 -160 0 -232 8 -31
15 -74 15 -94 l0 -36 -46 15 c-27 9 -41 18 -34 22 8 5 8 10 2 14 -5 3 -12 0
-15 -7 -6 -15 17 -50 26 -40 4 3 7 -1 7 -9 0 -9 11 -23 25 -32 25 -17 36 -66
14 -66 -5 0 -7 -4 -4 -10 3 -6 0 -10 -7 -10 -9 0 -10 -2 -1 -8 6 -4 13 -15 15
-26 2 -14 -4 -19 -32 -23 -45 -6 -48 -6 -92 5 -35 9 -37 9 -27 -9 5 -11 14
-17 19 -14 5 3 12 0 16 -6 5 -8 3 -9 -6 -4 -8 5 -11 3 -8 -6 3 -8 14 -13 24
-11 16 2 16 1 4 -7 -13 -9 -12 -12 5 -25 11 -8 23 -12 27 -10 5 3 8 0 8 -7 0
-7 -8 -9 -21 -6 -17 5 -18 3 -8 -10 10 -12 10 -16 -2 -24 -10 -6 -11 -9 -1 -9
7 0 11 -4 7 -9 -3 -5 -1 -12 4 -16 10 -5 7 -36 -4 -55 -4 -6 -12 -7 -18 -3
-14 9 -40 12 -132 16 -38 1 -77 6 -85 10 -8 5 1 -6 20 -23 51 -46 77 -57 154
-64 38 -3 72 -8 74 -11 3 -3 0 -17 -7 -31 -15 -35 -10 -41 116 -126 80 -53
103 -64 103 -51 0 10 5 25 11 33 8 11 9 6 7 -21 -3 -32 1 -39 35 -64 34 -24
38 -25 36 -9 -2 11 -1 24 3 29 12 20 26 84 19 87 -4 2 4 19 17 38 14 19 21 26
17 15 -9 -25 -44 -166 -45 -182 0 -6 33 -33 73 -60 41 -26 129 -85 196 -131
147 -100 155 -104 141 -68 -9 24 -7 28 18 37 15 6 50 9 77 6 45 -4 72 -14 174
-61 13 -6 26 -17 29 -26 3 -8 13 -23 24 -33 10 -10 18 -25 18 -35 0 -9 27 -39
60 -67 73 -60 89 -82 96 -139 6 -44 7 -44 152 -142 80 -54 154 -106 164 -116
20 -20 24 -84 7 -108 -9 -13 -10 -13 -6 1 4 12 -35 41 -154 114 -88 53 -162
101 -165 107 -3 5 0 16 7 24 25 30 0 24 -27 -7 -16 -17 -45 -48 -66 -69 -20
-21 -48 -56 -62 -79 -46 -73 -78 -69 -52 5 19 57 21 92 2 49 -27 -62 -72 -73
-55 -12 12 41 11 41 -3 30 -29 -22 -48 -22 -73 2 -26 23 -26 24 -11 76 9 29
14 54 12 56 -2 3 -7 -4 -10 -15 -10 -31 -70 -34 -135 -6 -40 18 -64 22 -98 18
-64 -7 -135 27 -85 42 9 3 30 12 45 20 16 7 34 14 40 14 31 0 149 111 134 126
-3 3 -29 -10 -58 -28 -75 -46 -138 -46 -194 -1 -21 18 -42 28 -45 23 -3 -5
-20 -10 -38 -12 -31 -2 -33 -5 -30 -34 1 -19 -4 -38 -14 -47 -15 -15 -20 -15
-53 -1 -34 14 -37 14 -32 0 4 -9 2 -16 -2 -16 -5 0 -12 7 -15 16 -8 20 -8 59
0 51 3 -3 41 19 84 49 43 30 84 54 91 54 7 0 32 12 57 26 l44 26 -34 21 c-18
11 -157 93 -308 182 -605 356 -746 435 -776 435 -10 0 -35 -16 -56 -37 l-37
-36 -183 17 c-280 25 -965 62 -976 52 -10 -10 364 -181 743 -338 211 -88 292
-124 303 -133 2 -2 -3 -16 -11 -32 -18 -34 -32 -103 -22 -103 4 0 23 14 43 31
40 36 90 59 109 52 22 -8 15 -20 -22 -37 -73 -35 -122 -112 -161 -251 -12 -44
-23 -71 -23 -59 -1 11 6 44 15 73 8 29 13 58 11 64 -7 18 -248 -487 -262 -547
-3 -16 -24 -46 -47 -65 -47 -42 -44 -18 -77 -511 -18 -271 -26 -413 -38 -685
-8 -166 -8 -179 -1 -195 3 -9 97 -62 209 -118 167 -84 262 -123 528 -218 339
-120 591 -197 716 -217 81 -12 85 -17 85 -89 0 -80 38 -272 161 -810 l63 -278
592 0 591 0 7 38 c3 20 6 64 6 96 0 160 33 476 50 476 4 0 11 -53 14 -117 3
-65 11 -170 17 -235 6 -64 9 -147 7 -185 l-3 -68 562 -3 562 -2 11 42 c18 69
89 314 126 437 19 62 48 166 65 230 17 64 38 122 47 130 15 12 13 12 -18 6
-65 -14 -223 -16 -232 -2 -5 8 -8 6 -8 -7 0 -15 -3 -16 -15 -6 -12 10 -15 10
-15 -1 0 -12 -2 -12 -9 0 -7 11 -9 11 -14 0 -3 -8 -6 -4 -6 9 -1 12 4 22 9 22
6 0 10 7 10 15 0 11 5 12 25 5 20 -8 25 -6 25 5 0 19 101 66 153 73 27 3 50
15 76 41 46 44 110 134 121 170 4 14 11 35 16 46 6 17 4 17 -21 -5 -28 -25
-28 -25 -16 -2 12 22 11 23 -9 12 -29 -15 -38 -5 -11 12 25 16 28 30 4 21 -23
-8 -33 -23 -33 -47 0 -12 5 -16 15 -12 8 3 15 1 15 -4 0 -5 -9 -12 -20 -15
-11 -4 -18 -10 -16 -14 3 -4 -4 -12 -14 -19 -16 -10 -22 -8 -35 10 -8 13 -15
17 -15 9 0 -9 -9 -11 -30 -6 -20 4 -39 2 -53 -8 -16 -10 -28 -12 -40 -5 -12 6
-17 5 -17 -2 0 -6 -8 -11 -17 -10 -24 3 -63 -10 -63 -21 0 -4 -9 -6 -20 -4
-10 2 -29 -4 -42 -14 -13 -10 -29 -16 -37 -13 -8 3 -11 0 -7 -7 4 -6 3 -11 -3
-11 -5 0 -12 6 -14 13 -4 9 -6 8 -6 -2 -1 -11 -4 -11 -16 -1 -8 7 -15 9 -15 6
0 -4 -9 -2 -20 4 -11 6 -18 15 -15 21 4 5 11 7 16 4 5 -3 6 1 3 9 -3 9 -3 24
2 34 4 9 15 37 24 62 12 32 22 44 33 42 15 -3 23 24 19 60 -1 3 5 9 13 12 8 3
14 2 13 -2 -4 -14 23 -52 38 -52 8 0 17 13 21 30 3 17 8 28 11 26 3 -3 11 2
19 12 12 16 13 16 7 -1 -5 -13 -2 -16 10 -11 9 3 16 15 16 26 0 14 5 18 15 14
9 -3 20 3 27 14 7 11 17 20 21 20 5 0 25 16 45 36 20 20 31 33 25 30 -8 -5
-13 -1 -13 8 0 9 5 16 11 16 5 0 8 4 5 9 -3 5 -16 7 -29 4 -17 -5 -20 -3 -10
7 9 10 9 16 -2 26 -16 16 -35 18 -35 4 0 -5 5 -10 10 -10 12 0 13 -11 0 -30
-8 -13 -11 -12 -24 5 -10 12 -15 15 -16 7 0 -19 28 -45 40 -37 5 3 10 2 10 -2
0 -18 -87 -52 -114 -44 -5 1 -4 -4 3 -12 9 -12 8 -16 -4 -20 -9 -4 -12 -13 -9
-24 5 -15 4 -16 -5 -3 -7 9 -14 11 -18 5 -11 -14 -46 -16 -55 -2 -5 8 -9 6
-13 -5 -4 -9 -12 -16 -18 -14 -7 1 -9 1 -4 -1 12 -8 8 -22 -13 -43 -11 -11
-15 -20 -9 -20 5 0 8 -4 4 -10 -3 -5 -11 -8 -18 -6 -7 1 -9 1 -4 -1 14 -8 7
-23 -10 -23 -12 0 -14 -3 -6 -8 8 -5 8 -15 -2 -40 -13 -29 -31 -38 -66 -34 -4
1 -4 -8 -1 -20 4 -16 2 -19 -9 -13 -11 7 -12 6 -2 -7 15 -17 8 -29 -12 -21
-14 5 -13 51 1 74 4 7 2 10 -7 7 -8 -3 -13 -11 -11 -17 2 -10 -19 -15 -55 -14
-7 1 -13 -4 -13 -11 0 -7 -16 -10 -45 -8 -28 3 -45 0 -45 -7 0 -6 -7 -11 -15
-11 -8 0 -29 -9 -47 -20 -35 -21 -53 -26 -43 -11 3 6 -3 9 -14 8 -11 0 -17 -5
-15 -9 3 -4 1 -8 -5 -8 -5 0 -12 4 -16 9 -3 5 -17 6 -33 2 -15 -5 -36 -5 -47
-1 -25 9 -67 2 -78 -13 -6 -8 -7 -7 -4 4 4 12 -2 18 -19 22 -21 4 -24 1 -18
-17 6 -19 5 -19 -10 -7 -9 8 -15 20 -12 28 3 7 1 13 -3 13 -5 0 -17 3 -25 6
-12 5 -15 2 -10 -11 6 -16 5 -16 -14 1 -23 19 -29 30 -12 19 5 -3 19 0 31 8
13 10 16 17 10 22 -6 3 -14 -1 -17 -9 -4 -11 -11 -13 -31 -5 -18 7 -28 5 -39
-6 -21 -20 -30 -19 -13 2 13 15 12 15 -8 5 -18 -10 -20 -9 -17 6 5 21 -15 53
-22 35 -8 -18 -34 -4 -34 19 0 10 4 16 10 13 6 -3 7 1 4 10 -5 11 -10 13 -19
5 -16 -13 -55 7 -55 27 0 7 -4 13 -9 13 -5 0 -11 9 -14 20 -3 11 -1 20 4 20 5
0 9 7 9 16 0 8 5 12 11 9 6 -4 8 -13 5 -21 -3 -8 1 -14 10 -14 8 0 12 5 8 11
-4 8 -1 8 12 1 11 -5 27 -8 37 -7 9 2 17 0 17 -4 0 -15 -13 -20 -29 -12 -9 5
-28 7 -43 4 l-27 -5 22 -18 c16 -13 26 -15 35 -8 8 7 17 6 29 -3 9 -8 14 -9
10 -3 -4 7 0 15 8 18 9 3 18 -1 21 -9 4 -8 14 -15 23 -15 14 1 14 2 -1 11 -26
14 -22 31 5 25 l22 -6 -22 11 c-13 7 -23 19 -24 28 0 12 -2 11 -8 -3 -6 -17
-8 -17 -14 -4 -3 10 1 19 11 23 14 5 14 7 2 16 -12 9 -12 10 -1 7 8 -2 15 -12
17 -22 1 -10 6 -21 10 -24 4 -4 5 0 2 8 -7 19 17 54 31 46 6 -4 8 -14 5 -24
-4 -11 -3 -13 3 -5 10 13 27 6 37 -17 3 -8 4 2 2 22 -3 22 0 38 5 38 6 0 7 -4
4 -10 -3 -5 -1 -10 5 -10 6 0 8 -4 5 -10 -3 -5 0 -10 9 -10 8 0 13 8 12 18 -4
25 15 33 32 14 13 -16 13 -16 8 1 -6 20 4 22 23 5 11 -10 13 -10 7 0 -4 7 -1
12 7 12 8 0 18 7 21 16 3 8 2 12 -4 9 -6 -3 -10 5 -10 19 0 19 -5 26 -20 26
-11 0 -23 6 -26 14 -3 8 -12 12 -20 9 -8 -3 -21 0 -29 7 -8 7 -15 9 -16 4 -1
-5 -4 2 -8 15 -4 14 -12 26 -19 29 -7 2 -10 -2 -6 -12 5 -12 2 -15 -10 -10
-21 8 -20 13 13 52 16 19 28 39 27 45 -2 14 -21 21 -21 8 0 -19 -13 -21 -41
-6 -19 10 -23 15 -11 15 9 0 17 3 17 6 0 12 -24 50 -39 62 -13 10 -11 10 12 1
25 -11 29 -17 26 -36 0 -3 6 -10 15 -15 20 -11 56 7 56 28 0 8 7 17 15 20 8 4
12 11 9 16 -4 6 -9 6 -14 -2 -4 -7 -10 -8 -13 -4 -3 5 1 15 9 22 8 7 14 8 14
2 0 -5 5 -10 11 -10 5 0 7 6 3 13 -4 6 3 3 16 -8 l23 -20 -8 25 c-7 24 -6 24
7 6 18 -23 82 -31 74 -9 -3 7 -1 13 4 13 6 0 10 -4 10 -9 0 -14 37 -20 49 -8
8 8 11 8 11 -1 0 -7 5 -12 10 -12 7 0 7 6 1 19 -9 16 -8 18 9 14 34 -9 22 11
-18 29 -20 10 -29 16 -20 14 9 -3 19 0 22 7 2 7 5 4 5 -5 1 -22 21 -24 21 -3
0 8 3 15 8 15 4 0 7 -18 7 -40 -1 -43 14 -56 46 -40 33 18 36 -16 4 -46 -23
-21 -29 -23 -43 -12 -12 10 -14 10 -8 0 5 -8 -1 -12 -19 -12 -15 0 -24 4 -20
10 4 6 9 8 13 6 4 -2 13 2 20 10 8 9 9 14 2 14 -6 0 -9 4 -6 9 4 5 -3 7 -13 4
-12 -3 -17 -11 -14 -19 3 -8 0 -14 -6 -14 -6 0 -11 -11 -11 -24 0 -13 -6 -27
-12 -29 -8 -4 -7 -6 4 -6 9 -1 18 4 20 10 2 6 18 12 36 12 18 1 32 5 32 8 0 4
15 4 33 2 17 -2 42 -6 55 -7 14 -2 22 2 22 11 0 8 5 11 13 7 9 -5 9 -4 1 5 -6
7 -18 13 -25 14 -24 4 -39 18 -39 35 1 12 5 10 15 -8 11 -20 14 -21 15 -7 0
14 5 17 20 12 16 -5 19 -3 14 12 -3 11 0 10 8 -5 8 -12 16 -21 19 -18 10 10
95 13 107 3 8 -6 16 -7 20 -1 14 18 32 13 38 -10 5 -20 10 -23 27 -17 23 9 50
4 43 -7 -2 -4 2 -13 10 -20 11 -10 15 -9 23 7 6 10 7 21 4 25 -3 3 1 6 10 6
10 0 17 -4 17 -9 0 -4 11 -8 24 -7 14 0 24 -3 24 -9 -1 -5 -11 -9 -22 -7 -18
2 -18 1 4 -11 23 -13 27 -12 50 14 14 16 31 29 38 29 16 0 16 -27 0 -33 -9 -4
-8 -6 3 -6 8 -1 22 14 30 32 16 33 16 33 -21 97 -8 14 -15 27 -15 30 -7 27
-27 60 -37 60 -7 0 -14 12 -15 26 -2 44 -34 135 -50 141 -8 3 -12 11 -9 18 3
8 -2 11 -15 8 -10 -3 -19 -1 -19 4 0 5 10 9 21 10 29 3 31 6 16 37 -9 21 -17
26 -36 23 -13 -3 -35 2 -50 9 -17 9 -20 14 -9 14 9 0 20 -5 23 -10 10 -16 25
-12 19 5 -3 8 -9 14 -12 13 -18 -2 -33 3 -29 9 3 5 -6 9 -19 9 -13 1 -21 -2
-18 -7 3 -5 -2 -9 -10 -9 -10 0 -13 6 -10 15 4 9 0 15 -9 15 -9 0 -14 -7 -12
-17 2 -10 4 -24 4 -31 1 -8 6 -10 14 -6 9 6 9 4 -1 -8 -7 -9 -9 -19 -5 -21 5
-3 10 -19 11 -36 1 -17 7 -42 12 -56 6 -15 6 -25 0 -25 -5 0 -17 26 -27 57
-10 32 -21 60 -25 61 -5 2 -8 12 -8 22 0 10 -5 22 -11 25 -6 4 -8 13 -5 21 3
8 2 14 -3 14 -5 0 -7 11 -6 25 2 14 -1 25 -7 25 -6 0 -8 6 -5 13 3 7 -1 24 -9
38 -7 13 -13 34 -14 47 0 13 -4 21 -8 18 -5 -3 -8 -22 -6 -43 1 -21 -4 -42
-10 -46 -7 -6 -4 -6 8 -3 14 5 17 2 12 -10 -3 -8 -6 -18 -6 -20 0 -3 -5 -2
-12 2 -7 4 -8 3 -4 -5 4 -6 11 -9 16 -6 9 5 18 -15 26 -57 2 -13 6 -33 8 -46
4 -16 0 -22 -12 -23 -12 0 -10 -3 6 -10 13 -5 20 -13 17 -19 -3 -5 -2 -10 3
-10 6 0 9 -11 8 -25 0 -14 -6 -23 -12 -21 -6 2 -11 -2 -11 -9 0 -7 6 -11 14
-8 9 3 13 -3 13 -22 0 -15 -4 -24 -10 -20 -5 3 -10 -2 -10 -11 0 -16 -1 -16
-14 2 -8 10 -18 16 -22 11 -4 -4 -3 -7 3 -7 14 0 4 -48 -11 -53 -9 -4 -12 3
-9 21 3 19 2 23 -5 13 -6 -8 -12 -9 -16 -3 -3 6 -20 9 -36 7 -33 -4 -38 5 -15
28 8 8 11 17 8 21 -4 3 2 6 11 6 12 0 16 5 12 16 -3 9 -6 18 -6 20 0 2 -8 4
-18 4 -15 0 -18 -6 -14 -31 4 -28 2 -30 -16 -25 -12 4 -23 2 -28 -5 -4 -7 -3
-9 2 -6 6 3 15 -6 20 -21 9 -25 8 -27 -14 -29 -18 -1 -21 1 -11 8 10 6 5 9
-16 9 -16 0 -25 -4 -20 -8 6 -4 11 -14 13 -22 2 -8 8 -17 13 -18 5 -2 6 -8 3
-14 -4 -5 -15 3 -25 19 -10 15 -19 24 -19 19 0 -6 -6 -1 -14 10 -14 18 -15 18
-26 -11 -12 -30 -12 -30 -23 -7 -13 27 -27 29 -20 2 6 -24 -21 -28 -43 -5 -9
8 -20 15 -25 15 -12 0 -12 -27 1 -35 6 -4 7 1 3 11 -4 12 -3 15 6 10 7 -5 10
-14 7 -21 -2 -7 1 -19 7 -26 10 -11 9 -11 -5 0 -13 10 -18 10 -18 2 0 -7 -5
-9 -10 -6 -6 4 -8 10 -6 14 3 4 0 13 -6 21 -8 12 -9 11 -4 -4 5 -14 3 -16 -6
-9 -17 13 -60 24 -53 13 3 -4 -9 -10 -26 -12 -16 -3 -32 -1 -35 4 -9 14 -36
-13 -30 -29 4 -11 0 -13 -14 -8 -16 5 -19 3 -14 -12 5 -17 5 -17 -6 0 -6 9
-15 15 -20 12 -4 -3 -6 3 -3 14 3 11 -2 21 -11 24 -9 4 -16 2 -16 -2 0 -5 4
-11 10 -13 5 -2 6 -9 1 -17 -6 -9 -16 -11 -27 -7 -16 6 -16 8 -4 16 13 8 12
10 -2 10 -10 0 -18 6 -18 14 0 8 -4 17 -8 20 -5 3 -8 -4 -8 -16 1 -12 -5 -23
-11 -25 -7 -3 -13 0 -13 7 0 6 5 8 10 5 6 -3 10 -2 10 4 0 15 -18 23 -25 11
-10 -16 -22 -12 -28 9 -3 14 0 17 13 14 10 -3 21 0 24 6 7 11 36 4 49 -13 5
-7 6 -4 3 7 -3 10 -6 26 -6 35 0 15 -2 15 -10 2 -6 -9 -10 -10 -10 -3 0 6 -9
10 -20 8 -26 -5 -34 10 -13 26 14 12 16 12 8 -1 -6 -11 -5 -12 3 -5 16 14 3
55 -17 55 -13 0 -14 2 -1 9 8 6 18 7 24 4 5 -3 6 -1 2 6 -4 6 -12 9 -17 6 -5
-4 -9 -1 -9 4 0 6 8 11 18 11 16 1 16 2 -2 15 -10 7 -15 18 -12 24 4 5 0 14
-9 18 -8 5 -17 23 -19 41 -3 26 0 32 15 32 10 0 21 5 24 10 4 6 3 9 -2 8 -4
-2 -9 1 -11 7 -6 16 15 17 31 0 9 -8 18 -15 21 -15 6 0 -3 49 -11 64 -4 6 3 3
14 -7 21 -18 21 -18 6 25 -8 24 -23 53 -33 66 -17 20 -22 21 -40 10 -17 -11
-22 -11 -30 2 -13 20 -13 43 0 35 6 -3 10 -13 10 -21 0 -12 4 -13 21 -3 21 11
21 11 -7 29 -17 10 -33 14 -40 9 -12 -10 -24 -2 -24 15 0 6 5 4 10 -4 8 -13
10 -13 10 2 0 9 -6 18 -12 21 -7 2 -9 8 -5 13 5 5 15 1 23 -10 10 -15 14 -16
15 -5 0 8 4 6 9 -6 8 -18 9 -18 9 -2 1 10 5 16 9 13 5 -3 9 1 9 9 0 8 -2 13
-5 10 -3 -2 -13 0 -23 6 -15 8 -17 6 -12 -8 6 -16 5 -16 -10 -4 -16 13 -16 14
0 27 15 11 16 16 5 33 -7 12 -8 21 -4 21 5 0 15 -11 22 -25 10 -18 16 -22 22
-13 13 21 9 41 -6 35 -8 -3 -20 1 -26 9 -7 8 -18 14 -24 14 -7 0 -21 7 -32 16
-18 15 -18 15 3 5 29 -15 33 -14 33 5 0 13 4 11 18 -7 13 -15 21 -19 26 -11 4
7 1 12 -8 12 -9 0 -16 4 -16 10 0 5 7 7 15 4 9 -4 18 2 24 17 5 13 10 18 10
10 1 -11 4 -11 16 -1 16 13 11 32 -8 29 -13 -2 -49 11 -57 20 -9 10 -75 31
-99 31 -15 0 -20 4 -15 13 4 6 4 9 0 6 -4 -4 -33 0 -64 8 -68 18 -182 24 -199
10 -8 -6 -24 -5 -43 2 -17 5 -37 8 -45 5 -13 -5 -12 -10 2 -35 17 -29 33 -38
33 -19 0 6 4 10 10 10 5 0 9 -5 7 -12 -1 -7 12 -15 28 -19 24 -5 25 -7 8 -8
-27 -1 -30 -25 -5 -41 16 -11 16 -11 0 -6 -10 3 -18 1 -18 -3 0 -14 -63 -1
-82 16 -22 20 -23 29 -2 37 8 3 12 2 9 -4 -4 -6 0 -17 9 -25 19 -20 32 -19 16
0 -18 22 -6 30 14 10 14 -15 17 -15 22 -1 8 20 -6 43 -16 26 -5 -7 -22 9 -49
47 -38 54 -57 69 -28 22 10 -17 9 -22 -7 -31 -15 -8 -16 -12 -5 -19 19 -12 32
-11 24 1 -3 6 -1 10 4 10 13 0 15 -17 3 -24 -14 -8 -52 5 -51 18 3 24 -1 37
-11 31 -6 -4 -10 6 -10 22 0 21 -3 24 -9 13 -6 -8 -7 -18 -5 -22 3 -4 -2 -8
-11 -8 -10 0 -13 5 -9 13 6 9 5 9 -7 0 -11 -9 -20 -8 -39 7 -15 12 -19 20 -11
20 8 0 20 -8 28 -17 7 -10 5 -2 -4 19 -10 20 -19 30 -21 22 -2 -8 -8 -14 -13
-14 -6 0 -7 5 -4 10 4 6 1 18 -6 26 -6 8 -9 18 -5 21 7 7 142 -13 341 -52 136
-26 190 -33 325 -40 444 -22 794 -26 825 -8 16 9 -12 11 -130 11 -174 -2 -608
10 -645 17 -14 3 -53 7 -86 9 -34 3 -72 8 -85 11 -13 3 -37 7 -54 10 -16 2
-52 9 -80 14 -27 5 -75 12 -105 15 -30 3 -75 10 -100 16 -25 6 -69 16 -99 23
-30 7 -57 19 -59 26 -3 10 0 10 17 -1 18 -11 23 -11 31 2 8 13 10 13 10 0 0
-11 3 -11 12 -2 13 13 32 17 25 5 -3 -5 19 -8 48 -8 44 0 53 3 52 17 -1 9 -4
15 -8 12 -4 -2 -10 0 -13 5 -3 5 11 12 31 16 27 5 33 9 22 16 -12 7 -11 9 2 9
9 0 22 -7 29 -15 7 -8 19 -15 26 -15 17 0 18 -14 4 -40 -9 -17 -6 -20 22 -25
18 -3 56 -10 83 -16 89 -18 165 -23 165 -9 0 7 -7 10 -16 6 -13 -5 -14 -1 -10
22 3 15 2 34 -4 42 -6 10 -10 11 -10 3 0 -7 -4 -13 -10 -13 -5 0 -8 6 -5 12 2
7 6 38 9 68 5 56 -8 52 -18 -4 -8 -46 -19 -45 -13 2 4 32 2 42 -9 42 -8 0 -14
5 -14 10 0 6 7 10 16 8 10 -2 19 3 22 11 3 9 -2 11 -19 7 -13 -3 -18 -3 -11 0
6 3 12 16 12 29 0 14 7 25 18 28 16 4 16 4 -2 12 -12 5 -21 3 -28 -6 -6 -10
-7 -3 -3 21 4 23 3 30 -3 21 -6 -8 -12 -9 -16 -3 -3 6 -2 13 4 17 15 9 12 25
-5 25 -11 0 -12 5 -5 25 7 18 6 24 -3 22 -7 -1 -11 6 -9 16 2 12 -4 17 -20 17
-13 0 -18 4 -13 8 6 4 17 16 25 27 14 18 13 19 -1 8 -21 -17 -30 -6 -19 23 8
19 5 28 -13 45 -16 16 -17 20 -5 16 21 -7 32 19 12 27 -9 3 -13 10 -10 15 4 5
1 11 -6 13 -8 3 -8 9 0 24 8 14 11 15 12 4 0 -8 9 -21 20 -28 18 -11 17 -7 -5
33 -14 24 -26 56 -27 70 -1 14 -6 25 -11 25 -5 0 -6 7 -3 16 3 8 2 13 -3 10
-12 -8 -32 42 -36 89 -2 22 -9 56 -15 75 -5 19 -10 36 -10 37 0 1 8 4 18 6 15
4 15 5 1 6 -9 0 -20 8 -23 17 -4 10 -2 13 7 8 8 -6 8 -3 -1 8 -10 13 -11 22
-2 37 7 14 7 21 0 21 -5 0 -10 -6 -10 -12 0 -9 -3 -8 -9 2 -11 16 -4 33 9 25
5 -3 14 4 20 15 6 11 7 20 3 20 -3 0 6 13 22 30 16 16 23 30 17 30 -7 0 -12
-5 -12 -12 0 -6 -3 -9 -6 -5 -4 3 -13 -1 -21 -9 -8 -8 -19 -11 -25 -8 -5 3 1
12 14 18 12 7 21 19 20 27 -2 8 -4 29 -4 47 0 18 -6 36 -15 41 -13 7 -13 9 2
15 17 6 17 7 0 26 -13 15 -16 28 -10 57 4 21 9 58 11 82 7 84 16 56 12 -38 -5
-109 10 -87 18 28 6 84 10 95 27 84 22 -13 37 -11 37 5 0 8 2 13 5 11 5 -5 19
-120 35 -284 5 -55 15 -127 21 -160 14 -71 31 -108 24 -52 -2 21 -7 43 -11 50
-5 8 -2 8 9 -1 15 -12 15 -11 6 20 -19 59 -39 242 -27 249 5 4 7 23 4 45 -5
31 -4 36 6 26 6 -6 19 -12 27 -12 10 1 5 7 -11 16 -32 17 -51 75 -42 123 4 20
2 37 -7 48 -12 14 -12 15 0 9 8 -5 17 -3 22 5 7 11 9 11 9 1 0 -7 4 -11 9 -7
5 3 -1 17 -15 32 -27 30 -33 69 -8 59 8 -3 12 -2 9 4 -11 17 11 11 28 -8 10
-10 14 -22 10 -26 -5 -5 1 -7 11 -5 11 2 21 10 24 17 2 7 -2 11 -8 10 -7 -2
-15 3 -18 11 -2 8 0 11 6 8 5 -4 12 3 15 14 4 15 0 23 -14 26 -10 3 -19 10
-19 15 0 6 -6 5 -15 -2 -8 -7 -12 -16 -10 -21 6 -10 -34 -33 -43 -25 -3 3 1 6
8 6 7 0 10 3 7 7 -4 3 1 15 10 26 10 11 12 17 6 13 -8 -4 -13 -1 -13 9 0 9 -4
14 -9 11 -5 -3 -8 7 -8 22 0 15 2 21 4 15 3 -7 17 -13 33 -13 23 0 27 3 23 20
-3 11 0 27 7 35 10 12 5 17 -27 30 -20 9 -33 19 -28 23 15 11 19 63 4 60 -17
-4 -37 80 -28 120 4 17 3 32 -2 32 -4 0 -8 38 -8 85 0 47 -3 90 -7 96 -4 8 -3
9 4 5 18 -11 14 20 -4 35 -8 7 -13 21 -11 31 3 10 1 16 -3 13 -11 -7 -33 72
-26 91 3 8 1 25 -4 39 -7 19 -6 25 5 25 16 0 14 45 -3 62 -7 7 -12 19 -11 27
0 11 2 12 6 3 2 -6 9 -10 14 -7 5 4 6 -1 3 -9 -7 -18 4 -20 26 -6 13 8 13 12
-1 37 -17 28 -15 53 3 53 11 0 30 -17 47 -45 11 -18 12 -17 7 13 -3 17 -1 44
5 60 6 15 13 36 15 46 2 11 12 29 22 40 11 12 23 28 27 36 8 13 7 13 -8 1 -13
-11 -17 -11 -17 -1 0 8 -3 10 -6 7 -4 -3 -15 -2 -25 4 -15 8 -19 6 -19 -7 0
-10 5 -14 15 -10 24 9 29 -19 8 -43 l-18 -22 -6 28 -7 28 -1 -32 c-1 -38 -10
-63 -22 -63 -5 0 -8 3 -7 8 2 11 -14 66 -24 79 -10 12 -1 60 13 68 4 3 3 -8
-3 -25 -12 -37 -10 -41 21 -33 16 4 21 11 18 24 -3 11 -1 16 4 13 6 -3 8 6 5
23 -5 27 -5 27 10 8 16 -19 16 -19 9 5 -4 14 -7 27 -7 30 0 22 4 30 17 30 8 0
15 6 15 13 1 6 14 -4 31 -23 l30 -35 -13 30 c-7 17 -15 32 -18 35 -18 17 -43
52 -34 47 7 -4 18 1 25 10 10 12 10 14 2 9 -16 -9 -16 4 -1 41 6 15 13 37 15
48 2 10 8 22 14 26 8 5 8 12 1 25 -9 16 -12 16 -16 4 -2 -8 -7 -22 -9 -30 -3
-8 -6 0 -6 18 -1 17 4 32 9 32 16 0 86 -37 104 -55 14 -14 16 -14 16 -2 0 10
7 13 20 10 11 -3 20 -11 20 -18 0 -13 28 -30 43 -27 4 1 7 -2 7 -6 0 -4 14 -9
32 -10 18 -2 40 -11 49 -21 17 -18 16 -19 -6 -31 -13 -7 -28 -9 -34 -6 -7 5
-9 1 -5 -8 3 -9 10 -16 16 -16 5 0 16 -7 24 -15 17 -16 60 -20 66 -6 5 13 48
24 48 12 0 -6 -3 -11 -7 -11 -5 0 -14 -4 -22 -9 -12 -8 -12 -12 -2 -25 11 -14
11 -16 -5 -16 -17 0 -17 -1 2 -14 12 -9 23 -11 29 -5 11 11 78 12 71 1 -2 -4
0 -14 6 -22 8 -13 9 -12 5 1 -4 11 3 20 19 28 25 11 25 11 10 -11 -11 -15 -12
-25 -5 -34 8 -9 5 -11 -13 -8 -22 5 -22 5 2 -10 l25 -15 -40 -1 -40 -1 30 -13
c19 -8 25 -15 17 -20 -7 -4 -18 -4 -24 0 -7 4 -5 -1 4 -12 16 -18 18 -23 18
-44 0 -12 22 -9 31 4 4 4 10 3 13 -3 4 -6 2 -11 -4 -11 -6 0 -8 -5 -4 -12 4
-7 3 -8 -4 -4 -15 9 -15 1 -1 -25 9 -19 9 -19 -10 -10 -15 8 -22 8 -27 -1 -4
-7 -3 -10 1 -5 5 4 19 -3 32 -15 22 -20 23 -21 24 -2 1 10 1 22 0 27 -2 14 17
7 23 -9 3 -8 2 -12 -4 -9 -6 3 -10 -1 -10 -10 0 -11 5 -15 14 -12 10 4 12 0 8
-15 -5 -20 -6 -20 -19 -3 -7 11 -13 15 -13 9 1 -14 29 -61 30 -48 0 6 7 11 15
11 8 0 12 -4 9 -8 -2 -4 5 -10 16 -14 11 -3 20 -11 20 -18 0 -8 -3 -8 -12 1
-15 15 -52 16 -43 2 4 -6 11 -8 16 -5 5 4 9 -1 9 -10 0 -9 -5 -13 -11 -9 -7 4
-9 -1 -7 -12 2 -11 -3 -24 -12 -31 -13 -10 -12 -11 5 -10 12 1 20 -4 20 -13 0
-8 6 -21 13 -28 7 -8 10 -18 7 -23 -4 -5 -1 -9 6 -9 7 0 9 -3 5 -7 -4 -5 -14
1 -21 11 -13 17 -14 15 -8 -19 4 -28 3 -36 -5 -31 -7 4 -12 3 -12 -3 0 -15 15
-21 30 -11 11 7 20 3 33 -13 15 -18 18 -18 13 -4 -3 10 -6 23 -6 28 0 5 -7 9
-15 9 -8 0 -15 4 -15 10 0 6 9 6 23 1 12 -5 21 -16 19 -25 -2 -9 4 -16 13 -16
8 0 15 7 15 15 0 8 7 15 16 15 9 0 12 5 8 12 -4 7 -3 8 4 4 7 -4 12 -17 12
-29 0 -18 -2 -20 -11 -7 -9 12 -10 12 -5 -3 3 -10 6 -25 6 -33 0 -9 5 -12 10
-9 6 4 8 11 5 16 -4 5 5 5 21 -1 22 -9 25 -8 20 5 -3 8 -1 15 4 15 6 0 10 -5
10 -10 0 -13 -22 -53 -35 -62 -6 -5 -5 -8 3 -8 6 0 12 -7 12 -15 0 -8 5 -15
11 -15 5 0 7 5 4 10 -3 6 -1 10 4 10 10 0 16 -21 12 -42 -2 -11 13 -10 26 3 7
7 12 6 16 -5 4 -11 1 -13 -10 -9 -11 4 -14 2 -11 -8 3 -8 12 -13 22 -11 11 2
16 -4 16 -19 0 -18 -2 -19 -15 -9 -12 10 -15 10 -15 0 0 -10 -3 -10 -14 0 -11
9 -19 9 -33 0 -16 -10 -16 -11 -1 -6 24 7 31 -9 12 -28 -8 -9 -11 -16 -6 -16
6 0 17 -3 25 -6 12 -4 14 0 10 15 -3 12 -2 21 2 21 14 0 30 -26 33 -54 3 -23
0 -27 -13 -22 -9 3 -13 2 -10 -4 3 -6 1 -10 -5 -10 -6 0 -9 -4 -6 -9 4 -5 0
-11 -6 -14 -7 -3 1 -3 17 -2 42 5 42 5 20 15 -19 8 -19 9 3 9 15 1 21 5 16 13
-4 6 -3 8 3 5 18 -11 22 -45 6 -51 -8 -3 -11 -11 -7 -18 5 -7 1 -9 -13 -6 -11
3 -20 0 -20 -6 0 -6 15 -11 34 -12 39 -1 51 -10 35 -26 -8 -8 -15 -8 -27 2
-10 8 -15 9 -15 1 0 -6 5 -11 11 -11 8 0 8 -4 -1 -14 -6 -8 -17 -13 -25 -10
-7 3 -16 1 -20 -5 -4 -7 7 -11 30 -11 22 0 34 -4 30 -10 -4 -6 -10 -8 -15 -5
-5 3 -8 -3 -7 -14 0 -11 5 -17 10 -14 5 3 6 -5 2 -18 -12 -39 -11 -44 8 -41
15 3 17 0 8 -17 -15 -28 -14 -31 12 -32 17 -1 15 -3 -9 -10 -30 -8 -56 -39
-34 -39 6 0 10 4 10 10 0 5 7 7 15 4 8 -4 12 -11 8 -18 -4 -6 1 -4 11 3 16 13
17 13 14 -5 -2 -11 2 -18 9 -17 13 3 6 -28 -9 -38 -15 -10 3 -39 24 -39 17 0
18 -2 8 -15 -11 -13 -15 -13 -21 -3 -7 10 -9 8 -9 -5 0 -14 5 -17 23 -12 22 6
22 6 -2 -13 -16 -13 -20 -21 -12 -26 6 -4 16 -4 23 0 8 5 9 2 5 -10 -6 -16 -3
-17 20 -12 21 5 24 4 13 -4 -13 -9 -13 -10 0 -10 13 0 13 -1 0 -10 -19 -12
-53 -13 -45 -1 3 5 1 12 -4 15 -5 3 -11 -1 -15 -9 -3 -8 -1 -17 5 -20 5 -4 6
-12 2 -18 -11 -18 -12 -37 -2 -37 5 0 9 9 9 20 0 26 48 47 64 29 8 -9 8 -10
-1 -5 -7 3 -14 -2 -18 -14 -3 -11 -11 -20 -18 -20 -6 0 -2 -7 9 -15 18 -14 16
-15 -24 -11 -24 2 -40 0 -36 -5 3 -5 19 -9 35 -9 25 0 28 -2 17 -14 -7 -7 -20
-11 -28 -8 -8 3 -5 -4 8 -15 25 -23 29 -35 8 -27 -8 3 -17 1 -21 -5 -3 -6 -1
-11 5 -11 6 0 8 -4 5 -10 -3 -5 -16 -8 -28 -6 -12 3 -26 5 -30 5 -5 1 -5 5 -2
11 3 6 -1 7 -9 4 -20 -8 -21 5 -1 20 12 9 10 11 -14 12 -22 1 -28 -3 -24 -15
3 -12 0 -11 -11 3 -9 11 -16 25 -16 32 0 13 -30 26 -64 29 -14 1 -21 11 -23
33 -3 18 0 32 6 32 6 0 11 10 10 23 0 20 -1 20 -8 3 -5 -14 -10 -16 -15 -8 -4
7 -5 16 -1 21 3 5 1 12 -5 16 -5 3 -10 0 -10 -7 0 -7 -7 0 -16 17 -14 27 -14
30 7 45 16 13 18 17 5 17 -9 0 -16 -5 -16 -10 0 -5 -7 -4 -16 4 -13 11 -14 9
-9 -13 4 -16 2 -29 -6 -34 -9 -5 -10 -2 -6 10 4 10 3 15 -3 11 -15 -9 -30 4
-23 21 5 13 7 13 14 2 5 -7 9 -8 9 -3 0 6 -5 17 -10 25 -7 12 -10 12 -10 1 0
-7 -6 -11 -15 -7 -8 3 -14 2 -14 -2 1 -4 1 -17 0 -30 -1 -19 -5 -21 -28 -16
-29 7 -45 23 -37 35 2 4 -3 9 -11 13 -10 3 -15 -1 -15 -11 0 -27 -20 -1 -22
30 -1 15 -6 23 -11 18 -11 -11 -58 -1 -51 10 3 5 10 7 15 4 5 -4 9 3 9 14 0
12 -4 21 -10 21 -5 0 -10 -4 -10 -10 0 -5 -6 -7 -13 -4 -12 4 -14 -5 -8 -47 1
-3 16 -5 35 -4 23 0 32 -3 29 -12 -3 -6 -1 -18 3 -25 11 -17 13 -48 2 -42 -4
3 -8 12 -8 21 0 9 -6 13 -15 10 -8 -4 -17 -2 -20 3 -3 5 -13 6 -22 3 -11 -5
-14 -3 -8 6 4 8 18 11 33 8 24 -5 25 -4 8 8 -10 8 -24 11 -32 8 -10 -3 -16 5
-20 26 -4 17 -11 31 -16 31 -5 0 -7 -9 -3 -20 3 -11 2 -28 -4 -37 -9 -16 -10
-14 -11 9 0 21 -5 26 -20 25 -23 -1 -28 -17 -5 -17 8 0 15 -5 15 -11 0 -6 -7
-8 -16 -5 -21 8 -44 -11 -44 -36 0 -10 -4 -17 -10 -13 -5 3 -7 12 -4 19 3 8 1
17 -5 21 -6 3 -11 1 -11 -6 0 -8 -4 -8 -15 1 -9 7 -19 9 -23 5 -4 -4 -1 -10 6
-12 6 -3 9 -10 5 -16 -4 -6 0 -8 10 -4 16 6 22 -3 18 -26 -1 -5 8 -6 19 -2 19
6 20 3 15 -37 -3 -24 -2 -37 1 -30 7 16 25 16 23 0 -3 -22 1 -62 5 -57 2 2 9
28 14 57 8 45 7 56 -9 76 -11 13 -19 30 -19 38 0 11 2 11 9 -1 5 -8 11 -9 15
-3 3 6 15 8 25 5 13 -3 21 1 24 14 5 17 5 17 6 0 1 -11 -7 -21 -19 -24 -11 -3
-20 -9 -20 -13 0 -5 9 -6 20 -3 11 3 20 1 20 -5 0 -5 -9 -12 -19 -15 -16 -4
-19 -12 -16 -39 1 -19 9 -46 16 -59 14 -25 16 -30 18 -52 0 -7 10 -14 21 -15
45 -4 50 -6 47 -16 -3 -6 0 -19 5 -29 8 -16 7 -18 -11 -12 -16 5 -20 3 -15 -9
3 -8 12 -12 20 -9 10 4 17 -2 21 -17 4 -13 8 -17 13 -10 5 8 11 6 20 -5 8 -10
9 -15 1 -15 -6 0 -11 -4 -11 -10 0 -5 8 -10 19 -10 12 0 20 -9 23 -25 5 -26
-6 -35 -15 -12 -4 9 -6 9 -6 0 -1 -15 33 -35 45 -25 5 4 3 0 -4 -10 -10 -12
-10 -18 -1 -23 6 -4 15 -1 20 6 6 10 8 8 6 -8 0 -12 -5 -19 -9 -16 -12 6 3
-50 14 -58 5 -3 4 -17 -1 -32 -7 -18 -7 -28 0 -33 6 -3 13 3 16 15 3 12 8 21
12 21 8 0 10 -20 10 -112 1 -38 4 -68 9 -68 4 0 6 20 5 45 0 25 3 45 8 45 5 0
9 -12 10 -27 1 -24 4 -60 8 -110 1 -7 10 -13 21 -13 11 0 20 -7 20 -15 0 -13
-11 -19 -31 -17 -13 2 -16 -48 -4 -64 10 -14 12 -13 11 12 -1 37 17 38 20 2 1
-16 11 -36 23 -45 12 -10 22 -31 23 -48 1 -16 10 -40 21 -52 10 -12 16 -26 12
-32 -3 -6 -2 -11 4 -11 6 0 13 -16 17 -36 4 -24 9 -32 15 -23 10 16 33 -37 25
-58 -3 -7 5 -20 18 -28 13 -9 26 -26 30 -38 3 -11 8 -18 12 -14 4 4 17 -6 28
-22 12 -15 26 -26 33 -24 6 2 16 -9 21 -24 7 -17 11 -21 11 -10 1 9 5 17 10
17 5 0 7 -9 4 -20 -3 -13 1 -22 12 -26 13 -5 14 -9 3 -15 -10 -7 -9 -9 5 -9
16 0 21 -10 18 -36 -1 -6 10 -16 25 -22 15 -7 22 -17 18 -24 -5 -8 -2 -9 9 -5
10 3 17 2 17 -3 0 -24 36 -89 52 -93 12 -3 16 -12 13 -27 -3 -16 0 -20 10 -16
11 4 15 -2 15 -19 0 -18 4 -23 15 -19 12 5 15 -2 15 -30 0 -20 5 -36 11 -36 5
0 8 -3 6 -7 -3 -5 1 -13 8 -20 11 -10 15 -10 18 0 3 7 6 0 6 -15 1 -16 9 -33
20 -40 15 -9 17 -16 10 -31 -8 -14 -5 -23 15 -42 13 -12 28 -20 31 -16 4 3 6
-7 5 -24 -3 -46 -1 -57 10 -50 6 3 10 1 10 -4 0 -6 9 -11 21 -11 12 0 17 -4
13 -11 -4 -6 -19 -9 -36 -5 -26 5 -28 4 -13 -10 13 -14 13 -34 -1 -34 -3 0 -2
5 1 10 10 16 -11 12 -25 -5 -10 -12 -9 -15 7 -15 11 0 20 -7 20 -15 0 -10 -8
-13 -26 -10 -14 3 -21 3 -15 0 13 -6 7 -45 -6 -45 -10 0 -1 -40 12 -57 9 -11
38 -10 57 1 11 7 23 -22 15 -35 -3 -5 13 -2 36 7 33 13 44 14 50 5 8 -15 7
-15 62 5 49 17 80 42 71 57 -3 5 -1 7 5 3 6 -3 13 -2 16 3 4 5 2 12 -4 16 -5
3 -10 14 -10 25 0 10 -7 21 -16 24 -9 4 -14 13 -10 22 3 8 2 12 -4 9 -6 -3
-10 -11 -10 -16 0 -6 -6 -17 -14 -24 -12 -12 -15 -11 -19 5 -3 11 0 18 6 17 6
-1 12 7 14 18 1 11 0 14 -3 8 -3 -7 -13 -13 -22 -12 -11 0 -12 2 -4 6 16 6 15
34 -3 69 -12 24 -15 26 -16 9 -1 -11 -1 -27 0 -35 2 -12 0 -12 -7 -2 -5 8 -12
13 -16 13 -16 -2 -18 0 -6 14 7 8 9 15 5 15 -4 0 -2 6 4 14 9 11 9 15 -1 20
-8 4 -9 8 -2 11 5 3 9 19 8 35 -1 17 2 30 8 30 5 0 7 4 3 10 -3 5 -12 7 -20 3
-11 -4 -15 3 -15 25 0 17 5 32 12 34 7 3 9 14 5 30 -5 20 -14 28 -35 30 l-27
3 21 21 c21 21 21 22 3 35 -14 10 -15 15 -6 21 9 6 9 8 -1 8 -8 0 -10 8 -6 24
5 20 1 25 -18 29 l-23 4 23 8 c18 6 20 10 10 16 -10 7 -10 9 0 9 18 0 15 17
-10 42 -14 14 -18 23 -10 26 16 5 15 27 -1 44 -8 7 -17 26 -21 42 -6 23 -4 27
8 23 9 -4 16 -2 16 2 0 5 -4 11 -10 13 -5 2 -11 19 -13 38 -4 40 -33 99 -56
117 -14 11 -14 12 2 13 16 0 16 2 3 23 -7 12 -16 34 -20 50 -4 15 -13 27 -21
27 -8 0 -15 5 -15 10 0 6 7 10 17 10 14 0 14 2 1 18 -21 25 -41 73 -45 106 -2
17 -8 33 -14 37 -8 4 -7 8 2 12 12 4 11 7 -1 16 -8 6 -10 11 -4 11 12 0 20 31
28 105 3 22 8 64 11 94 9 81 54 109 75 47 18 -56 106 -214 152 -273 123 -160
180 -203 347 -263 138 -49 177 -50 279 -9 92 38 167 107 230 214 45 78 65 133
41 120 -8 -4 -3 2 9 15 19 18 21 24 10 31 -10 7 -10 9 0 9 7 0 11 4 7 9 -3 5
-1 13 5 16 8 5 7 12 -2 23 -8 10 -9 13 -1 9 15 -9 21 20 12 55 -4 15 -4 28 1
30 9 3 24 125 21 173 -1 11 -4 15 -9 10 -9 -11 -42 -110 -42 -129 0 -6 -14
-33 -30 -61 -26 -43 -30 -46 -25 -20 17 100 18 127 4 136 -11 7 -10 9 4 9 14
0 17 7 14 35 -3 19 0 35 5 35 4 0 -1 18 -12 39 -17 34 -18 40 -4 45 24 9 28 7
15 -8 -9 -10 -7 -17 6 -27 16 -13 17 -12 5 3 -9 11 -10 18 -2 23 18 11 12 38
-7 31 -17 -6 -17 -5 0 8 15 12 16 17 5 41 -10 22 -17 26 -37 21 -15 -4 -37 -8
-51 -10 -13 -2 -26 -9 -28 -15 -2 -6 -8 -11 -13 -11 -6 0 -7 5 -4 10 4 6 -4 5
-19 -1 -14 -7 -23 -16 -19 -21 3 -6 -4 -5 -15 1 -17 9 -23 8 -31 -6 -9 -17
-10 -17 -17 0 -4 12 -9 15 -14 7 -4 -6 -23 -13 -44 -17 -32 -5 -38 -3 -43 16
-3 13 -11 20 -19 17 -10 -4 -11 -1 -5 12 5 9 15 36 22 60 7 24 18 51 25 60 12
15 13 14 14 -10 0 -16 5 -28 11 -28 5 0 7 -4 4 -10 -9 -14 8 -13 23 2 9 9 12
9 12 -1 0 -7 5 -9 12 -5 7 5 9 2 5 -9 -4 -11 -2 -14 9 -10 13 5 12 8 -3 26
-10 11 -12 17 -5 13 7 -4 12 -2 12 7 0 14 35 43 53 45 5 0 18 11 29 24 11 13
28 22 39 20 10 -2 19 2 19 8 0 6 12 15 26 20 19 8 25 16 21 30 -3 11 1 21 11
25 14 5 14 7 2 16 -11 7 -12 11 -3 17 6 4 10 20 9 35 -2 15 2 27 8 28 6 0 2 4
-9 9 -11 5 -14 9 -7 9 8 1 11 8 7 19 -3 11 1 32 9 47 11 21 12 33 4 42 -5 7
-8 20 -4 28 10 27 -3 16 -45 -40 -42 -56 -59 -67 -59 -40 0 8 6 14 13 12 6 -1
11 4 10 11 -2 6 4 12 12 12 9 0 12 6 9 15 -4 8 -10 12 -15 9 -5 -3 -9 -1 -9 4
0 5 -17 6 -39 2 -22 -4 -45 -4 -52 1 -7 4 -17 5 -21 3 -4 -3 -8 0 -8 5 0 6 8
11 18 12 36 2 76 11 91 20 13 8 12 9 -4 4 -12 -3 -46 -6 -78 -6 -31 -1 -57 -5
-57 -9 0 -4 -17 -7 -37 -8 -25 -1 -33 2 -24 7 16 11 -39 21 -117 23 -28 1 -50
4 -47 6 3 3 -20 18 -51 34 -63 32 -77 31 -43 -3 15 -15 19 -24 10 -27 -15 -5
-53 27 -45 39 3 5 -2 6 -10 3 -9 -3 -16 -1 -16 5 0 6 7 11 15 11 23 0 19 8
-35 61 -27 27 -50 58 -50 69 0 26 15 33 17 8 2 -26 82 -105 120 -118 25 -9 26
-8 11 4 -10 7 -18 19 -18 26 0 7 -3 10 -6 7 -8 -8 -44 11 -44 22 0 5 7 12 15
15 11 4 15 0 13 -12 -2 -10 2 -16 11 -14 7 2 21 -3 30 -11 35 -30 44 -31 38
-6 -3 13 -3 29 1 35 13 19 52 23 68 6 13 -12 17 -13 24 -2 6 10 9 8 13 -6 4
-18 5 -18 6 0 1 14 6 17 24 12 12 -3 30 -6 40 -6 9 0 17 -7 17 -16 0 -8 5 -12
10 -9 6 3 10 -2 10 -12 0 -15 2 -16 10 -3 8 13 10 12 10 -4 0 -13 5 -17 20
-13 11 3 20 0 20 -6 0 -7 5 -5 10 3 5 8 10 10 10 4 0 -17 30 -12 30 5 0 14 2
14 10 1 7 -11 10 -12 10 -2 0 21 -27 45 -33 29 -3 -7 -6 -4 -6 6 -1 11 -6 15
-13 11 -7 -4 -8 -3 -4 4 4 6 -2 20 -14 32 -11 11 -20 30 -20 43 0 13 -11 34
-25 47 -14 13 -25 34 -25 47 0 13 -4 23 -10 23 -5 0 -10 9 -10 20 0 11 -3 20
-7 19 -22 -3 -54 15 -49 27 3 8 1 14 -4 14 -6 0 -10 9 -10 21 0 11 5 17 10 14
6 -3 10 -1 10 5 0 7 6 5 15 -4 9 -8 21 -13 28 -11 26 10 97 11 97 1 0 -5 6 -2
13 8 12 16 13 14 12 -23 -1 -28 2 -38 8 -32 7 7 16 3 29 -11 17 -20 18 -20 19
-2 0 15 2 14 11 -6 6 -14 11 -28 10 -31 -1 -4 8 -5 19 -2 14 4 19 12 16 24 -3
11 0 16 8 12 8 -2 18 5 24 16 16 29 14 44 -6 37 -10 -4 -14 -4 -10 0 4 4 1 14
-6 22 -10 13 -9 14 2 8 10 -6 9 -3 -2 15 -8 13 -15 38 -15 54 1 17 3 24 5 18
3 -7 9 -13 14 -13 6 0 7 5 4 10 -3 6 3 24 15 40 12 16 18 34 15 40 -8 12 -35
13 -35 1 0 -5 -11 -8 -25 -6 -14 1 -25 -2 -25 -8 0 -6 -3 -8 -6 -4 -4 3 -19 0
-35 -8 -15 -8 -40 -15 -54 -15 -15 0 -38 -9 -53 -20 -20 -16 -27 -18 -34 -8
-6 10 -10 10 -18 -2 -7 -11 -10 -11 -10 -2 0 7 -4 10 -10 7 -5 -3 -10 -2 -10
2 0 5 -30 10 -67 11 -84 3 -173 20 -173 34 0 5 -7 7 -15 4 -10 -3 -18 1 -22
12 -3 9 -14 26 -24 37 -10 12 -22 36 -25 55 l-7 34 49 -35 c27 -19 56 -42 64
-53 15 -17 19 -17 44 -4 l28 15 -26 17 c-15 9 -24 21 -21 26 4 6 -3 10 -14 10
-12 0 -21 7 -21 15 0 8 -4 15 -9 15 -16 0 -101 90 -120 128 -11 21 -22 54 -26
75 -5 24 -24 54 -56 88 -27 28 -47 55 -44 59 10 16 -132 131 -167 134 -3 1
-10 4 -14 9 -10 9 -16 257 -8 310 6 36 7 37 50 37 24 0 44 1 44 3 0 2 -18 45
-40 97 -23 51 -39 95 -36 97 2 2 57 20 122 39 66 19 155 46 199 60 l81 26 37
-25 c48 -33 130 -60 182 -61 55 0 135 13 135 24 0 4 -8 6 -18 3 -34 -8 -185
27 -231 54 -102 60 -205 206 -247 350 l-16 55 -38 -6 c-21 -3 -65 -15 -97 -26
-134 -49 -229 -80 -243 -80 -9 0 -20 -4 -25 -9 -6 -5 -26 -14 -45 -19 -19 -5
-65 -21 -102 -35 -76 -29 -78 -27 -78 49 0 50 2 51 100 74 30 7 62 15 70 18 8
3 20 6 25 7 6 1 33 10 60 20 28 9 61 19 75 21 14 2 43 10 65 18 22 7 65 19 95
26 30 7 60 16 65 20 6 5 21 10 35 12 23 3 26 11 43 93 23 111 54 179 112 243
l45 50 -117 -38 c-65 -21 -120 -35 -123 -31 -12 18 -54 20 -66 3 -13 -16 -13
-16 -14 1 0 21 -19 23 -27 1 -4 -11 -13 -13 -34 -9 -20 5 -29 3 -29 -6 0 -8
-6 -7 -18 4 -20 18 -37 23 -28 8 3 -5 -13 -16 -35 -25 -24 -10 -43 -25 -46
-36 -3 -11 -10 -20 -15 -20 -5 0 -7 -4 -4 -9 3 -5 -22 -19 -57 -31 -151 -54
-214 -103 -271 -209 l-34 -64 -4 54 c-3 30 -1 58 4 64 4 5 7 36 7 70 -1 33 -3
49 -6 35 -25 -162 -72 -338 -98 -363 -8 -8 -11 -18 -7 -21 3 -4 2 -10 -4 -14
-20 -14 -45 -134 -53 -257 -6 -89 -13 -132 -25 -150 -9 -14 -21 -23 -25 -21
-5 3 -16 -3 -25 -13 -28 -31 -125 -36 -202 -11 -55 19 -73 31 -121 85 -57 64
-82 76 -61 29 17 -36 -4 -55 -32 -29 -11 10 -20 14 -20 10 0 -5 -10 1 -22 12
-13 12 -43 32 -68 45 -25 13 -44 28 -44 33 1 6 -7 16 -17 23 -11 7 -19 20 -19
28 0 9 -8 36 -19 62 -61 152 -74 214 -77 347 -1 72 2 155 7 185 10 68 27 198
34 265 12 113 12 114 53 120 20 4 51 11 67 15 39 12 158 15 174 6 7 -5 26 -2
42 4 28 12 29 14 13 31 -9 10 -20 16 -24 14 -4 -3 -21 0 -37 5 -36 13 -171 -8
-220 -33 -18 -10 -34 -17 -38 -17 -12 0 -3 48 26 134 38 109 71 177 112 230
27 34 32 37 43 22 11 -15 15 -13 35 23 12 23 27 41 33 41 6 0 4 5 -4 10 -8 5
-10 10 -5 10 6 0 21 -7 33 -16 13 -9 30 -13 38 -10 8 3 30 -1 49 -8 18 -8 35
-12 38 -10 2 2 17 -2 33 -11 16 -8 34 -15 39 -15 25 0 88 -82 139 -182 31 -59
56 -109 56 -111 0 -3 -19 -7 -41 -11 -48 -8 -109 -61 -109 -95 0 -21 0 -21 34
-1 86 48 160 50 168 6 4 -17 1 -23 -9 -19 -9 3 -13 -3 -13 -21 0 -21 -5 -26
-25 -26 -26 0 -95 -29 -95 -41 0 -3 28 -9 61 -11 44 -3 65 -10 75 -22 7 -10
17 -15 23 -12 5 4 15 -4 22 -16 6 -13 20 -32 30 -43 10 -11 32 -45 48 -75 25
-45 31 -50 31 -30 0 22 -25 157 -49 270 -32 144 -98 310 -168 417 -29 46 -53
85 -53 88 0 31 -158 170 -202 179 -13 2 -43 9 -68 16 -25 6 -53 11 -62 11 -10
0 -18 4 -18 10 0 11 -78 11 -105 -1z m839 -1452 c5 -74 3 -77 -53 -88 -20 -4
-43 -9 -50 -11 -20 -5 -36 67 -27 115 5 26 12 36 25 36 10 0 34 6 52 14 19 8
37 12 41 8 4 -4 9 -37 12 -74z m-1974 -39 c0 -5 -4 -9 -10 -9 -5 0 -10 7 -10
16 0 8 5 12 10 9 6 -3 10 -10 10 -16z m2330 -149 c0 -5 -2 -10 -4 -10 -3 0 -8
5 -11 10 -3 6 -1 10 4 10 6 0 11 -4 11 -10z m-403 -152 c-3 -7 -5 -2 -5 12 0
14 2 19 5 13 2 -7 2 -19 0 -25z m-813 -238 c4 -5 -1 -11 -13 -15 -23 -7 -27
-20 -11 -30 19 -12 -34 -54 -71 -57 -32 -3 -34 -1 -37 31 -3 24 0 31 9 26 8
-6 11 -1 7 17 -4 22 -1 26 21 26 14 0 27 5 29 11 4 11 50 5 66 -9z m-1079 -52
c-4 -29 -9 -55 -11 -57 -6 -7 -4 61 2 87 11 39 16 23 9 -30z m887 -4 c-8 -14
-9 -13 -9 10 0 18 3 24 9 18 7 -7 7 -16 0 -28z m-979 -39 c-3 -9 -8 -14 -10
-11 -3 3 -2 9 2 15 9 16 15 13 8 -4z m997 -26 c0 -10 -4 -19 -10 -19 -5 0 -10
12 -10 26 0 14 4 23 10 19 6 -3 10 -15 10 -26z m-918 -24 c-2 -14 -9 -25 -14
-25 -5 0 -7 3 -5 8 2 4 7 15 10 25 9 25 15 21 9 -8z m1098 -10 c0 -3 -18 -12
-40 -21 -22 -9 -40 -19 -40 -23 0 -4 -10 -7 -22 -8 -14 -1 2 11 37 28 65 31
65 31 65 24z m-1123 -77 c-3 -8 -6 -5 -6 6 -1 11 2 17 5 13 3 -3 4 -12 1 -19z
m1024 0 c22 -6 39 -15 39 -20 0 -5 5 -6 12 -2 7 4 8 3 4 -4 -7 -11 -36 -5 -46
9 -3 4 -17 9 -32 11 -29 4 -51 18 -28 18 7 0 30 -5 51 -12z m109 -62 c-8 -8
-15 -6 -24 6 -7 10 -17 14 -21 10 -5 -4 -5 -2 -1 5 5 9 13 10 32 1 18 -8 21
-14 14 -22z m-1143 -8 c-3 -8 -6 -5 -6 6 -1 11 2 17 5 13 3 -3 4 -12 1 -19z
m978 -58 c3 -5 2 -10 -4 -10 -5 0 -13 5 -16 10 -3 6 -2 10 4 10 5 0 13 -4 16
-10z m585 -246 c0 -8 -19 -13 -24 -6 -3 5 1 9 9 9 8 0 15 -2 15 -3z m-69 -67
c-10 -9 -11 -8 -5 6 3 10 9 15 12 12 3 -3 0 -11 -7 -18z m-660 -44 c-8 -15
-10 -15 -11 -2 0 17 10 32 18 25 2 -3 -1 -13 -7 -23z m722 -22 c3 -13 1 -18
-9 -14 -7 2 -10 11 -7 19 7 19 10 18 16 -5z m-686 -13 c-3 -8 -6 -5 -6 6 -1
11 2 17 5 13 3 -3 4 -12 1 -19z m-69 -51 c-11 -32 -23 -55 -26 -53 -2 3 6 30
18 61 12 31 24 54 26 52 2 -1 -6 -29 -18 -60z m-1428 43 c0 -6 -7 -13 -16 -17
-8 -3 -13 -12 -9 -21 4 -12 3 -13 -10 -2 -16 13 -21 35 -6 26 5 -3 11 1 15 9
6 17 26 20 26 5z m1544 -8 c3 -5 -1 -9 -9 -9 -8 0 -12 4 -9 9 3 4 7 8 9 8 2 0
6 -4 9 -8z m666 -30 c0 -15 -2 -15 -10 -2 -13 20 -13 33 0 25 6 -3 10 -14 10
-23z m-2191 -8 c3 -16 1 -17 -13 -5 -19 16 -21 34 -3 29 6 -3 14 -13 16 -24z
m-52 -69 c0 -8 -4 -15 -9 -15 -10 0 -11 14 -1 23 9 10 10 9 10 -8z m2250 -77
c-3 -8 -6 -5 -6 6 -1 11 2 17 5 13 3 -3 4 -12 1 -19z m-1781 -104 c-4 -9 -9
-15 -11 -12 -3 3 -3 13 1 22 4 9 9 15 11 12 3 -3 3 -13 -1 -22z m1938 -26 c-3
-4 -9 -8 -15 -8 -5 0 -9 4 -9 8 0 5 7 9 15 9 8 0 12 -4 9 -9z m31 -98 c3 -5 1
-10 -4 -10 -6 0 -11 5 -11 10 0 6 2 10 4 10 3 0 8 -4 11 -10z m-1118 -77 c2
-21 9 -54 14 -73 15 -58 12 -66 -16 -40 -21 19 -25 33 -25 76 0 86 18 111 27
37z m1193 31 c0 -8 -5 -12 -10 -9 -6 4 -8 11 -5 16 9 14 15 11 15 -7z m-1354
-80 c-4 -9 -9 -15 -11 -12 -3 3 -3 13 1 22 4 9 9 15 11 12 3 -3 3 -13 -1 -22z
m79 -24 c3 -5 1 -10 -4 -10 -6 0 -11 5 -11 10 0 6 2 10 4 10 3 0 8 -4 11 -10z
m7 -64 c-3 -5 2 -7 11 -3 10 3 17 3 17 -2 0 -14 -60 -91 -71 -91 -5 0 -7 5 -4
10 4 6 3 16 -3 23 -16 21 -23 49 -10 41 8 -5 9 -2 5 9 -3 10 -2 17 3 17 6 0
10 7 10 16 0 10 6 14 15 10 8 -3 15 0 16 7 0 7 4 3 8 -8 5 -11 6 -24 3 -29z
m78 -7 c0 -11 5 -17 10 -14 6 3 10 2 10 -4 0 -6 11 -13 25 -17 14 -3 25 -10
25 -16 0 -5 -4 -7 -9 -4 -5 4 -11 2 -13 -2 -1 -5 -16 -12 -31 -16 -21 -5 -27
-3 -22 5 4 6 1 15 -6 20 -11 7 -11 9 -1 9 7 0 10 5 7 10 -12 19 -16 62 -5 55
5 -3 10 -15 10 -26z m2205 -29 c3 -5 1 -10 -4 -10 -6 0 -11 5 -11 10 0 6 2 10
4 10 3 0 8 -4 11 -10z m-2350 -55 c2 -17 -2 -25 -11 -25 -9 0 -12 5 -8 12 4 7
3 8 -4 4 -8 -4 -8 -15 -2 -31 7 -19 6 -25 -4 -25 -8 0 -16 11 -18 25 -3 14 -1
25 3 25 5 0 9 6 9 13 0 15 21 39 28 32 3 -2 6 -16 7 -30z m86 21 c-6 -7 -13
-47 -15 -87 -3 -41 -5 -80 -5 -87 -1 -7 -5 -11 -10 -8 -4 3 -11 33 -14 66 -6
56 -5 65 19 96 15 19 29 34 31 34 3 0 0 -6 -6 -14z m130 -26 c5 0 9 -4 9 -9 0
-9 -47 -21 -54 -14 -10 10 8 34 21 29 8 -3 19 -6 24 -6z m1194 -10 c3 -5 1
-10 -4 -10 -6 0 -11 5 -11 10 0 6 2 10 4 10 3 0 8 -4 11 -10z m814 -4 c9 -11
9 -16 0 -22 -8 -4 -9 -3 -5 4 4 7 2 12 -3 12 -6 0 -11 5 -11 10 0 14 5 13 19
-4z m-2051 -28 c17 -17 16 -62 -2 -55 -11 5 -12 0 -3 -23 11 -30 30 -32 21 -2
-5 14 -4 15 5 2 15 -21 14 -39 -3 -36 -27 4 -43 27 -49 68 -8 56 4 73 31 46z
m1207 -8 c3 -5 -1 -10 -9 -10 -9 0 -16 5 -16 10 0 6 4 10 9 10 6 0 13 -4 16
-10z m-1352 -75 c3 -31 8 -40 23 -40 10 1 28 -10 39 -22 11 -13 27 -23 35 -23
9 0 23 -17 32 -39 17 -39 18 -57 5 -78 -5 -8 -3 -13 3 -13 14 0 3 -67 -17 -98
-8 -13 -12 -31 -8 -39 8 -22 -32 -137 -55 -158 -11 -10 -20 -22 -20 -27 0 -5
-7 -17 -16 -25 -13 -13 -20 -14 -35 -5 -11 7 -20 8 -24 2 -3 -6 -12 -10 -18
-10 -8 0 -8 3 1 9 10 6 10 10 -3 21 -12 10 -15 10 -15 0 0 -8 -3 -10 -7 -7 -3
4 4 18 17 32 13 14 20 28 17 32 -4 3 -7 1 -7 -5 0 -6 -10 -17 -22 -23 -21 -11
-22 -11 -9 5 13 15 13 19 0 27 -12 8 -6 13 13 10 4 0 5 5 2 13 -3 7 2 19 11
26 8 7 15 18 15 24 -1 6 -9 1 -20 -12 -10 -13 -22 -23 -26 -23 -13 -1 -22 25
-15 45 3 12 4 46 1 76 -5 54 2 129 15 163 4 10 3 17 -5 17 -6 0 -9 -4 -5 -9 3
-5 1 -12 -4 -15 -11 -7 -25 39 -23 74 1 13 11 37 22 52 16 22 17 28 6 28 -13
0 -12 4 0 30 19 37 27 39 18 5 -7 -28 10 -35 20 -9 4 9 9 14 12 11 9 -9 33 16
26 28 -3 7 -1 7 6 0 6 -5 13 -28 15 -50z m2347 19 c0 -20 -7 -17 -20 6 -9 16
-8 18 5 14 8 -4 15 -12 15 -20z m-2253 3 c10 4 14 2 11 -7 -5 -16 -36 -22 -44
-9 -3 5 -2 14 2 21 6 9 9 9 11 1 3 -7 11 -9 20 -6z m1273 3 c0 -5 -7 -7 -15
-4 -8 4 -15 8 -15 10 0 2 7 4 15 4 8 0 15 -4 15 -10z m-959 -30 c5 0 9 -4 9
-10 0 -15 -20 -12 -38 7 -16 16 -16 16 1 10 10 -4 23 -7 28 -7z m949 2 c0 -13
-12 -22 -22 -16 -10 6 -1 24 13 24 5 0 9 -4 9 -8z m1120 -17 c9 -11 7 -12 -9
-8 -11 3 -25 11 -31 18 -9 11 -7 12 9 8 11 -3 25 -11 31 -18z m-2400 1 c0 -11
-19 -15 -25 -6 -3 5 1 10 9 10 9 0 16 -2 16 -4z m-1315 -26 c4 -6 11 -7 17 -4
7 4 8 2 4 -5 -6 -9 -12 -9 -24 1 -10 7 -19 14 -21 15 -2 2 1 3 7 3 6 0 14 -5
17 -10z m1645 -4 c0 -11 -19 -15 -25 -6 -3 5 1 10 9 10 9 0 16 -2 16 -4z
m1106 -68 c4 -6 3 -8 -3 -5 -6 4 -13 0 -17 -8 -3 -8 -10 -15 -16 -15 -14 0
-13 27 3 33 20 9 25 8 33 -5z m1010 -19 c55 -7 109 -9 120 -5 16 7 65 10 103
7 5 -1 -5 -23 -22 -51 -30 -46 -77 -77 -97 -65 -5 3 -11 1 -15 -5 -3 -5 -16
-10 -27 -10 -12 0 -18 -3 -14 -7 10 -11 36 -12 36 -2 0 4 7 6 15 3 8 -4 12
-10 9 -15 -3 -5 -9 -7 -14 -4 -5 3 -16 -2 -24 -11 -13 -13 -20 -13 -31 -4 -8
7 -20 10 -27 7 -9 -4 -7 -6 3 -6 9 -1 19 -8 23 -16 7 -19 -24 -21 -43 -2 -10
10 -11 9 -6 -5 5 -12 2 -18 -8 -18 -8 0 -17 9 -20 21 -3 12 -10 19 -15 15 -8
-5 -10 1 -14 44 -2 13 -10 20 -23 20 -14 0 -16 3 -7 8 9 6 5 12 -15 22 -16 7
-23 15 -15 17 6 3 12 9 12 14 0 4 -7 5 -17 2 -10 -4 -14 -2 -9 5 3 6 2 13 -4
17 -5 3 -14 14 -19 24 -11 20 -2 20 165 0z m-3237 -41 c-56 -140 -103 -298
-88 -298 5 0 9 5 9 12 0 6 2 9 5 6 3 -3 -1 -27 -9 -54 -8 -27 -18 -67 -23 -89
-6 -36 -8 -33 -13 40 -4 44 -4 82 -1 85 3 3 7 22 9 42 1 21 13 61 26 90 13 29
29 77 36 106 7 30 19 56 27 59 8 3 19 16 24 29 4 13 11 24 14 24 2 0 -5 -24
-16 -52z m-559 22 c0 -5 -2 -10 -4 -10 -3 0 -8 5 -11 10 -3 6 -1 10 4 10 6 0
11 -4 11 -10z m1710 0 c0 -5 -2 -10 -4 -10 -3 0 -8 5 -11 10 -3 6 -1 10 4 10
6 0 11 -4 11 -10z m960 -60 c-18 -11 -22 -7 -14 14 5 13 10 14 18 6 8 -8 7
-13 -4 -20z m-1659 -7 c-12 -20 -14 -14 -5 12 4 9 9 14 11 11 3 -2 0 -13 -6
-23z m2929 -37 c0 -3 -4 -8 -10 -11 -5 -3 -10 -1 -10 4 0 6 5 11 10 11 6 0 10
-2 10 -4z m-2959 -33 c-12 -20 -14 -14 -5 12 4 9 9 14 11 11 3 -2 0 -13 -6
-23z m1749 -23 c13 -8 13 -10 -2 -10 -9 0 -20 5 -23 10 -8 13 5 13 25 0z
m1357 -6 c-3 -3 -12 -4 -19 -1 -8 3 -5 6 6 6 11 1 17 -2 13 -5z m-3757 -61
c-11 -17 -11 -17 -6 0 3 10 7 26 7 35 1 15 2 15 6 0 2 -10 -1 -25 -7 -35z
m1260 37 c0 -5 -5 -10 -11 -10 -5 0 -7 5 -4 10 3 6 8 10 11 10 2 0 4 -4 4 -10z
m-1227 -15 c-3 -9 -8 -14 -10 -11 -3 3 -2 9 2 15 9 16 15 13 8 -4z m1677 5 c0
-5 -4 -10 -10 -10 -5 0 -10 5 -10 10 0 6 5 10 10 10 6 0 10 -4 10 -10z m-1099
-27 c-12 -20 -14 -14 -5 12 4 9 9 14 11 11 3 -2 0 -13 -6 -23z m1829 13 c0 -3
-4 -8 -10 -11 -5 -3 -10 -1 -10 4 0 6 5 11 10 11 6 0 10 -2 10 -4z m-2266 -33
c-6 -25 -24 -56 -24 -41 0 10 22 68 26 68 2 0 1 -12 -2 -27z m2261 -13 c-3 -5
-13 -6 -21 -3 -12 4 -13 8 -3 14 15 9 32 2 24 -11z m-5 -34 c0 -3 -4 -8 -10
-11 -5 -3 -10 -1 -10 4 0 6 5 11 10 11 6 0 10 -2 10 -4z m-1402 -93 c-2 -10
-10 -24 -18 -31 -8 -8 -9 -11 -2 -7 14 7 15 4 6 -19 -3 -9 -10 -13 -15 -10 -5
3 -9 -2 -9 -10 0 -9 5 -16 12 -16 6 0 4 -8 -6 -19 -9 -10 -18 -28 -19 -39 -1
-16 -4 -18 -14 -11 -7 6 -17 8 -23 4 -5 -3 -10 -2 -10 4 0 5 9 13 20 16 11 4
17 11 14 17 -4 7 -9 6 -14 -2 -5 -8 -10 -9 -14 -2 -3 6 -2 13 4 17 6 4 8 11 4
16 -3 5 -8 7 -12 5 -4 -2 -7 7 -7 20 0 18 5 24 22 24 15 0 28 10 38 30 17 32
48 42 43 13z m1212 -13 c0 -5 -4 -10 -10 -10 -5 0 -10 5 -10 10 0 6 5 10 10
10 6 0 10 -4 10 -10z m74 -58 c3 -5 -1 -9 -9 -9 -8 0 -15 4 -15 9 0 4 4 8 9 8
6 0 12 -4 15 -8z m91 -30 c-7 -8 -35 13 -35 26 0 13 3 12 19 -4 10 -10 17 -20
16 -22z m-60 -12 c-1 -11 -5 -23 -10 -27 -4 -5 -5 -3 -1 4 3 6 1 15 -5 19 -8
4 -7 9 2 15 8 5 14 9 15 9 0 0 0 -9 -1 -20z m45 -10 c0 -5 -4 -10 -10 -10 -5
0 -10 5 -10 10 0 6 5 10 10 10 6 0 10 -4 10 -10z m1387 -25 c0 -18 -19 -15
-25 3 -2 7 3 12 11 12 7 0 14 -7 14 -15z m-2603 -9 c-3 -8 -12 -12 -21 -9 -12
5 -12 7 -1 14 20 13 28 11 22 -5z m1196 10 c0 -2 -7 -7 -16 -10 -8 -3 -12 -2
-9 4 6 10 25 14 25 6z m1394 -25 c7 -10 -34 -29 -56 -25 -10 1 -18 -4 -18 -12
0 -9 -4 -12 -10 -9 -18 11 -11 34 10 30 11 -2 20 0 20 5 0 5 7 6 17 3 11 -4
14 -3 9 5 -4 7 -1 12 8 12 8 0 17 -4 20 -9z m-90 -66 c3 -9 0 -15 -8 -15 -8 0
-16 7 -20 15 -3 9 0 15 8 15 8 0 16 -7 20 -15z m-1244 -10 c9 -11 10 -19 3
-26 -6 -6 -13 -1 -21 16 -13 28 -2 34 18 10z m1320 11 c0 -3 -4 -8 -10 -11 -5
-3 -10 -1 -10 4 0 6 5 11 10 11 6 0 10 -2 10 -4z m-107 -43 c-7 -2 -19 -2 -25
0 -7 3 -2 5 12 5 14 0 19 -2 13 -5z m3 -30 c-10 -11 -37 -12 -30 -2 3 5 12 9
21 9 9 0 13 -3 9 -7z m-103 -17 c4 -10 1 -13 -9 -9 -7 3 -14 9 -14 14 0 14 17
10 23 -5z m-2392 -93 c7 -38 5 -53 -7 -53 -16 0 -18 16 -4 25 8 5 7 11 -1 21
-8 10 -8 14 0 14 6 0 12 -3 12 -7z m-2197 -78 c-20 -42 -23 -59 -15 -74 13
-24 14 -42 2 -22 -11 17 -41 -80 -41 -133 0 -25 -4 -36 -15 -36 -10 0 -15 -10
-15 -27 0 -24 -2 -25 -14 -13 -20 21 -30 71 -14 68 8 -2 28 42 54 120 37 108
66 172 79 172 2 0 -7 -25 -21 -55z m3123 33 c-3 -8 -6 -5 -6 6 -1 11 2 17 5
13 3 -3 4 -12 1 -19z m-3000 -9 c-15 -12 -47 -38 -70 -59 -23 -21 -43 -37 -45
-36 -10 11 20 44 71 77 64 42 90 52 44 18z m53 -3 c0 -2 -8 -10 -17 -17 -16
-13 -17 -12 -4 4 13 16 21 21 21 13z m2026 -24 c-3 -5 4 -16 14 -25 19 -16 18
-47 -2 -47 -5 0 -6 5 -3 10 3 6 1 10 -5 10 -7 0 -10 7 -7 15 4 8 2 17 -4 20
-9 6 -4 25 7 25 3 0 3 -4 0 -8z m-1268 -90 c1 -26 4 -57 7 -69 5 -29 -9 -37
-37 -22 -16 9 -23 9 -26 0 -2 -6 -12 -11 -22 -11 -11 0 -23 -7 -28 -16 -8 -15
-11 -15 -38 0 -17 10 -21 15 -9 12 25 -7 75 44 95 94 29 75 54 81 58 12z
m-845 -17 c-15 -30 -29 -53 -31 -51 -4 5 46 106 53 106 3 0 -7 -25 -22 -55z
m3069 0 c3 -13 1 -22 -3 -19 -9 5 -13 44 -5 44 2 0 6 -11 8 -25z m-2784 -19
c-13 -19 -24 -33 -26 -31 -5 4 37 65 44 65 2 0 -6 -15 -18 -34z m233 -53 c-17
-26 -34 -64 -37 -85 -4 -21 -10 -35 -15 -32 -19 12 15 109 54 151 33 37 32 18
-2 -34z m-127 -57 c-42 -82 -80 -208 -68 -228 3 -4 0 -8 -6 -8 -19 0 -2 117
26 180 23 52 85 152 91 146 1 -1 -18 -42 -43 -90z m328 69 c-2 -14 -8 -22 -13
-19 -5 3 -5 14 1 25 14 26 18 24 12 -6z m-755 -27 c-3 -8 -6 -5 -6 6 -1 11 2
17 5 13 3 -3 4 -12 1 -19z m274 -25 c-47 -119 -62 -284 -35 -385 11 -42 10
-47 -1 -38 -8 7 -17 20 -20 31 -4 11 -11 17 -16 13 -5 -3 -9 -2 -7 3 1 4 -5
24 -14 43 -15 36 -31 161 -17 139 14 -23 37 10 65 94 32 96 52 147 59 147 3 0
-4 -21 -14 -47z m1939 27 c0 -5 -2 -10 -4 -10 -3 0 -8 5 -11 10 -3 6 -1 10 4
10 6 0 11 -4 11 -10z m24 -23 c-9 -24 -23 -11 -17 14 3 12 9 17 15 11 5 -5 6
-16 2 -25z m-2247 -19 c-3 -8 -6 -5 -6 6 -1 11 2 17 5 13 3 -3 4 -12 1 -19z
m768 2 c3 -6 -1 -7 -9 -4 -18 7 -21 14 -7 14 6 0 13 -4 16 -10z m-612 -90 c3
-44 2 -67 -3 -55 -8 19 -14 143 -6 134 2 -2 6 -38 9 -79z m-171 -11 c-5 -41
-6 -101 -2 -134 8 -65 5 -85 -5 -39 -4 16 -11 41 -15 57 -5 15 -5 39 0 55 5
15 12 53 15 85 4 32 9 57 11 54 3 -2 1 -38 -4 -78z m554 -14 c1 -14 -2 -25 -7
-25 -10 0 -12 33 -2 43 3 4 7 7 7 7 1 0 2 -11 2 -25z m2718 -70 c-4 -8 -10
-12 -15 -9 -11 6 -2 24 11 24 5 0 7 -7 4 -15z m523 -97 c-3 -8 -6 -5 -6 6 -1
11 2 17 5 13 3 -3 4 -12 1 -19z m-3724 -128 c6 -8 1 -6 -12 5 -13 11 -30 34
-37 52 -22 51 -16 52 12 3 14 -25 31 -52 37 -60z m2091 -94 c-3 -9 2 -16 13
-18 11 -2 14 -6 7 -11 -13 -8 -57 26 -47 37 12 12 32 6 27 -8z m156 -106 c0
-5 -7 -7 -15 -4 -8 4 -15 8 -15 10 0 2 7 4 15 4 8 0 15 -4 15 -10z m-496 -38
c-5 -4 -15 -18 -22 -32 l-12 -25 6 25 c8 30 24 53 33 45 3 -3 1 -9 -5 -13z
m264 -110 c2 -7 -2 -10 -12 -6 -9 3 -16 11 -16 16 0 13 23 5 28 -10z m-393
-50 c-3 -3 -11 0 -18 7 -9 10 -8 11 6 5 10 -3 15 -9 12 -12z m282 -22 c4 -12
3 -12 -5 -2 -5 8 -12 13 -16 12 -4 -1 -12 1 -19 4 -6 3 -1 4 12 3 14 -1 26 -9
28 -17z m-332 0 c19 -8 19 -9 -2 -9 -12 -1 -25 4 -28 9 -7 12 2 12 30 0z m40
0 c3 -5 1 -10 -4 -10 -6 0 -11 5 -11 10 0 6 2 10 4 10 3 0 8 -4 11 -10z m329
-6 c10 -25 -1 -29 -14 -5 -6 12 -7 21 -1 21 5 0 12 -7 15 -16z m-14 -29 c7 -9
19 -14 26 -11 6 2 11 -2 10 -10 -1 -8 -5 -14 -9 -14 -10 1 -57 50 -48 50 5 0
14 -7 21 -15z m-905 -5 c-3 -5 -11 -10 -16 -10 -6 0 -7 5 -4 10 3 6 11 10 16
10 6 0 7 -4 4 -10z m630 -8 c-3 -3 -11 0 -18 7 -9 10 -8 11 6 5 10 -3 15 -9
12 -12z m210 8 c-3 -5 -14 -10 -23 -9 -14 0 -13 2 3 9 27 11 27 11 20 0z m263
-2 c-6 -18 -25 -21 -25 -3 0 8 7 15 15 15 7 0 12 -5 10 -12z m-533 -8 c3 -5 1
-10 -4 -10 -6 0 -11 5 -11 10 0 6 2 10 4 10 3 0 8 -4 11 -10z m570 0 c3 -5 2
-10 -4 -10 -5 0 -13 5 -16 10 -3 6 -2 10 4 10 5 0 13 -4 16 -10z m-254 -8 c14
-6 15 -9 3 -20 -11 -10 -14 -10 -14 2 0 8 -6 17 -12 19 -7 3 -8 5 -3 6 6 0 17
-3 26 -7z m-868 -18 c-1 -6 7 -10 19 -9 11 1 32 -10 45 -23 21 -21 23 -28 14
-49 -12 -26 -6 -47 10 -37 6 3 5 -3 -3 -15 -7 -12 -24 -21 -38 -22 -14 0 -19
-3 -12 -6 18 -7 15 -19 -10 -44 -21 -20 -21 -21 -3 -15 15 6 17 4 8 -5 -6 -6
-9 -17 -7 -24 3 -7 -9 -21 -26 -32 -24 -14 -30 -23 -27 -42 3 -17 -1 -25 -13
-28 -10 -3 -24 -18 -30 -33 -14 -33 -37 -45 -56 -29 -11 9 -14 9 -14 0 0 -6 7
-14 16 -18 13 -5 10 -9 -12 -20 -16 -7 -21 -11 -12 -9 11 3 16 -1 15 -13 -1
-13 -7 -17 -21 -13 -14 4 -17 2 -11 -9 5 -8 -3 -4 -17 9 -21 19 -25 32 -27 87
-2 68 7 91 58 145 12 14 29 36 36 50 11 23 35 111 36 135 0 6 5 15 11 22 5 7
7 16 4 22 -3 5 -4 16 -1 24 7 16 71 18 68 1z m463 -2 c0 -14 -6 -17 -31 -13
-22 4 -25 6 -10 9 11 2 24 8 30 13 12 11 11 12 11 -9z m494 8 c0 -5 7 -10 15
-10 8 0 15 -4 15 -10 0 -16 -15 -12 -35 10 -10 11 -13 20 -7 20 7 0 12 -4 12
-10z m50 -5 c7 -8 9 -15 6 -15 -4 0 -14 7 -22 15 -9 8 -11 15 -6 15 5 0 15 -7
22 -15z m30 5 c0 -5 -2 -10 -4 -10 -3 0 -8 5 -11 10 -3 6 -1 10 4 10 6 0 11
-4 11 -10z m-500 -10 c0 -5 -2 -10 -4 -10 -3 0 -8 5 -11 10 -3 6 -1 10 4 10 6
0 11 -4 11 -10z m750 6 c0 -3 -4 -8 -10 -11 -5 -3 -10 -1 -10 4 0 6 5 11 10
11 6 0 10 -2 10 -4z m51 -13 c11 -15 11 -16 0 -6 -7 6 -21 9 -30 6 -14 -4 -14
-3 -1 6 8 6 16 11 16 11 1 0 8 -8 15 -17z m-748 -16 c-4 -6 0 -8 10 -4 9 3 19
2 22 -3 4 -6 -3 -10 -14 -10 -11 0 -25 9 -31 20 -9 16 -8 18 5 14 8 -3 12 -11
8 -17z m312 13 c3 -5 1 -10 -4 -10 -6 0 -11 5 -11 10 0 6 2 10 4 10 3 0 8 -4
11 -10z m170 -1 c11 -17 -1 -21 -15 -4 -8 9 -8 15 -2 15 6 0 14 -5 17 -11z
m-530 -9 c18 0 12 -31 -7 -44 -11 -7 -23 -5 -41 7 -19 12 -27 13 -30 4 -4 -8
-6 -7 -6 3 -1 17 37 39 57 34 8 -2 20 -4 27 -4z m135 -10 c0 -5 -5 -10 -11
-10 -5 0 -7 5 -4 10 3 6 8 10 11 10 2 0 4 -4 4 -10z m-250 -50 c11 0 24 -9 30
-20 6 -11 7 -20 1 -20 -5 0 -11 7 -15 15 -3 8 -10 15 -16 15 -6 0 -8 -4 -5
-10 3 -5 0 -10 -7 -11 -7 0 -24 -2 -37 -3 -21 -3 -22 -1 -8 9 9 7 14 15 10 18
-3 4 -1 7 5 7 7 0 13 8 13 18 1 16 2 16 6 0 2 -10 13 -18 23 -18z m20 20 c0
-5 -2 -10 -4 -10 -3 0 -8 5 -11 10 -3 6 -1 10 4 10 6 0 11 -4 11 -10z m38 -30
c10 -16 10 -20 -2 -20 -7 0 -16 9 -19 20 -3 11 -2 20 2 20 3 0 12 -9 19 -20z
m29 9 c12 -12 5 -51 -8 -43 -5 3 -7 9 -4 14 3 5 1 11 -5 15 -12 7 -13 25 -2
25 4 0 13 -5 19 -11z m397 -7 c3 -5 -1 -9 -9 -9 -8 0 -15 4 -15 9 0 4 4 8 9 8
6 0 12 -4 15 -8z m-314 -14 c0 -5 -4 -6 -10 -3 -17 10 -11 -12 7 -26 11 -10
14 -10 9 -1 -4 6 -2 12 3 12 6 0 11 -6 11 -12 0 -10 3 -9 9 1 6 10 10 10 16 1
4 -6 -1 -18 -11 -26 -18 -14 -18 -15 2 -5 12 6 25 7 29 3 5 -4 5 1 2 11 -4 9
-4 17 0 17 3 0 12 -8 20 -17 8 -10 12 -12 8 -5 -3 6 -2 12 3 12 5 0 14 -12 21
-27 11 -23 10 -25 -3 -13 -9 7 -16 9 -16 4 1 -14 26 -44 37 -44 5 0 18 -10 29
-22 10 -12 13 -18 7 -14 -7 4 -13 2 -13 -3 0 -6 7 -11 16 -11 8 0 13 -4 10 -9
-6 -9 -65 -25 -81 -22 -5 2 -5 -3 2 -10 10 -9 15 -10 27 0 11 9 16 9 22 0 4
-8 3 -9 -4 -5 -7 4 -12 2 -12 -4 0 -6 -12 -9 -27 -8 -23 2 -27 -1 -25 -17 2
-15 1 -17 -6 -6 -8 11 -10 11 -15 0 -3 -9 -6 -9 -6 -2 -1 6 5 18 13 26 13 12
13 17 1 34 -19 27 -56 37 -48 14 4 -14 3 -14 -10 2 -8 9 -19 17 -25 17 -16 0
-24 32 -10 41 6 4 16 5 21 2 5 -3 1 7 -9 23 -19 28 -19 28 1 21 18 -7 19 -6 3
6 -10 8 -15 17 -11 20 3 4 -5 7 -20 7 -29 0 -40 11 -32 32 6 16 65 21 65 6z
m-329 -87 c-18 -37 -25 -61 -18 -62 7 0 3 -4 -9 -9 -11 -4 -33 -33 -49 -64
-16 -31 -32 -56 -37 -56 -4 0 -8 -6 -8 -14 0 -7 -19 -34 -42 -59 -24 -25 -60
-64 -80 -86 -20 -23 -42 -41 -49 -41 -6 0 15 28 47 63 81 87 129 155 204 288
68 122 92 144 41 40z m227 51 c2 -7 -2 -10 -12 -6 -9 3 -16 11 -16 16 0 13 23
5 28 -10z m2199 -14 c-3 -7 -5 -2 -5 12 0 14 2 19 5 13 2 -7 2 -19 0 -25z
m-2587 12 c0 -5 -2 -10 -4 -10 -3 0 -8 5 -11 10 -3 6 -1 10 4 10 6 0 11 -4 11
-10z m336 -17 c4 -16 8 -38 9 -51 1 -26 -39 -69 -50 -53 -3 6 0 11 7 11 8 0
14 10 15 22 1 11 6 24 12 27 6 4 6 12 1 21 -8 13 -10 12 -10 -3 0 -10 -4 -16
-9 -13 -5 3 -14 -1 -21 -9 -7 -8 -17 -15 -23 -15 -6 0 -7 3 -4 7 4 3 -1 11
-10 18 -14 11 -14 12 1 18 10 4 15 3 11 -3 -3 -6 1 -7 9 -4 9 3 13 10 10 15
-3 5 -2 9 3 8 23 -4 35 2 29 16 -3 8 -2 15 3 15 5 0 12 -12 17 -27z m914 7 c0
-11 -2 -20 -4 -20 -2 0 -6 9 -9 20 -3 11 -1 20 4 20 5 0 9 -9 9 -20z m-830 0
c0 -5 -2 -10 -4 -10 -3 0 -8 5 -11 10 -3 6 -1 10 4 10 6 0 11 -4 11 -10z m800
0 c0 -5 -7 -7 -15 -4 -8 4 -15 8 -15 10 0 2 7 4 15 4 8 0 15 -4 15 -10z m-845
-10 c3 -5 -1 -10 -9 -10 -9 0 -16 5 -16 10 0 6 4 10 9 10 6 0 13 -4 16 -10z
m101 -47 c-2 -3 -13 0 -23 6 -12 7 -13 10 -4 11 9 0 10 4 5 13 -5 7 -1 4 9 -6
10 -11 15 -22 13 -24z m2322 14 c-7 -14 -13 -17 -16 -9 -6 19 6 44 18 37 7 -4
6 -14 -2 -28z m-2385 17 c3 -3 3 -12 0 -20 -6 -16 -33 -19 -33 -4 0 6 5 10 11
10 5 0 7 5 4 10 -7 11 8 14 18 4z m-178 -24 c3 -5 3 -15 -1 -21 -6 -11 -23 6
-24 24 0 10 18 9 25 -3z m1049 -8 c3 -5 -1 -9 -9 -9 -8 0 -12 4 -9 9 3 4 7 8
9 8 2 0 6 -4 9 -8z m1510 -21 c3 -5 0 -11 -7 -14 -8 -3 -14 1 -14 9 0 16 13
19 21 5z m-1430 -37 c3 -8 -3 -12 -15 -11 -10 1 -19 5 -19 10 0 4 -3 6 -7 4
-5 -3 -17 -1 -28 3 -14 5 -7 7 22 7 24 -1 44 -6 47 -13z m-22 -32 c11 -14 11
-15 -5 -9 -10 4 -25 7 -33 7 -21 0 -17 16 5 17 11 1 26 -6 33 -15z m-847 -2
c3 -5 2 -10 -4 -10 -5 0 -13 5 -16 10 -3 6 -2 10 4 10 5 0 13 -4 16 -10z m51
-5 c-11 -8 -15 -19 -10 -27 6 -10 4 -10 -9 1 -18 14 -24 37 -8 26 5 -3 12 -1
16 5 3 5 12 10 18 10 7 0 4 -7 -7 -15z m150 -16 c19 -22 19 -22 -3 -8 -13 8
-23 17 -23 21 0 12 6 9 26 -13z m79 -29 c3 -5 -1 -10 -10 -10 -9 0 -13 5 -10
10 3 6 8 10 10 10 2 0 7 -4 10 -10z m-522 -17 c-9 -26 -24 -43 -37 -43 -8 0
-8 2 0 8 6 4 14 17 18 30 4 12 11 22 16 22 5 0 7 -8 3 -17z m-383 3 c0 -2 -7
-7 -16 -10 -8 -3 -12 -2 -9 4 6 10 25 14 25 6z m295 -16 c3 -5 1 -10 -4 -10
-6 0 -11 5 -11 10 0 6 2 10 4 10 3 0 8 -4 11 -10z m-55 -11 c0 -5 -4 -8 -9 -4
-5 3 -12 1 -16 -5 -3 -5 -11 -10 -18 -10 -6 0 -2 7 9 15 23 17 34 19 34 4z
m1185 -28 c3 -5 1 -12 -4 -15 -5 -3 -11 1 -15 9 -6 16 9 21 19 6z m-1470 -31
c16 -17 16 -20 3 -15 -9 4 -19 13 -22 21 -7 19 -2 18 19 -6z m50 -10 c3 -5 1
-10 -4 -10 -6 0 -11 5 -11 10 0 6 2 10 4 10 3 0 8 -4 11 -10z m800 -10 c3 -5
1 -10 -4 -10 -6 0 -11 5 -11 10 0 6 2 10 4 10 3 0 8 -4 11 -10z m-95 -4 c0 -3
-4 -8 -10 -11 -5 -3 -10 -1 -10 4 0 6 5 11 10 11 6 0 10 -2 10 -4z m1665 -27
c10 -15 1 -21 -19 -13 -9 3 -16 14 -16 23 0 13 -2 13 -9 2 -5 -8 -11 -9 -15
-3 -3 6 0 12 6 15 15 5 44 -8 53 -24z m-1969 12 c-7 -11 24 -19 67 -17 30 1
33 -1 24 -15 -8 -13 -16 -15 -36 -8 -13 6 -30 8 -36 5 -17 -6 -48 31 -32 38
18 7 19 7 13 -3z m1027 2 c-7 -2 -19 -2 -25 0 -7 3 -2 5 12 5 14 0 19 -2 13
-5z m-698 -12 c3 -5 2 -12 -3 -15 -5 -3 -9 1 -9 9 0 17 3 19 12 6z m-756 -35
c-3 -3 -11 5 -18 17 -13 21 -12 21 5 5 10 -10 16 -20 13 -22z m681 30 c0 -3
-4 -8 -10 -11 -5 -3 -10 -1 -10 4 0 6 5 11 10 11 6 0 10 -2 10 -4z m796 -7
c13 -21 -12 -29 -29 -9 -16 19 -16 20 3 20 10 0 22 -5 26 -11z m-926 -19 c0
-5 -9 -14 -20 -20 -24 -13 -26 -7 -4 14 18 18 24 20 24 6z m112 -14 c5 4 23
-3 38 -15 18 -13 30 -16 32 -9 3 8 11 7 28 -3 14 -7 29 -12 34 -11 4 2 14 -2
22 -9 7 -6 18 -8 24 -4 6 4 9 1 8 -7 -2 -7 -10 -16 -17 -19 -11 -4 -9 -7 7
-11 12 -4 20 -2 16 3 -10 17 22 9 38 -10 15 -18 15 -19 -3 -24 -11 -3 -19 -14
-19 -26 0 -12 -6 -21 -15 -21 -13 0 -14 4 -4 21 10 20 9 21 -16 15 -19 -5 -25
-3 -20 5 10 16 -15 29 -45 23 -22 -4 -22 -3 -5 5 11 5 16 10 11 10 -5 1 1 10
14 21 13 11 19 20 14 20 -6 0 -15 -5 -21 -11 -15 -15 -47 -3 -37 12 5 8 3 9
-5 4 -9 -5 -10 -10 -2 -18 15 -15 14 -32 -2 -19 -8 7 -18 7 -27 2 -8 -5 -22
-4 -34 2 -20 11 -20 11 -1 18 15 5 10 9 -23 17 -31 8 -40 8 -35 -1 3 -6 -2 -4
-13 5 -10 9 -25 14 -32 12 -7 -3 -10 1 -7 9 3 8 20 15 37 16 18 2 34 5 37 8 3
3 7 0 9 -5 2 -6 8 -8 14 -5z m1663 -56 c-3 -5 -1 -10 5 -10 6 0 8 -4 5 -10 -3
-5 -1 -19 5 -31 7 -11 9 -23 7 -26 -3 -3 -15 13 -26 35 -19 37 -19 52 1 52 5
0 6 -4 3 -10z m-1675 -4 c0 -2 -7 -7 -16 -10 -8 -3 -12 -2 -9 4 6 10 25 14 25
6z m1625 -36 c3 -5 1 -10 -4 -10 -6 0 -11 5 -11 10 0 6 2 10 4 10 3 0 8 -4 11
-10z m-150 -10 c3 -5 2 -10 -4 -10 -5 0 -13 5 -16 10 -3 6 -2 10 4 10 5 0 13
-4 16 -10z m-1381 -25 c-4 -8 -1 -15 5 -15 6 0 8 -6 5 -14 -5 -12 -9 -11 -25
5 -24 24 -24 39 1 39 13 0 18 -5 14 -15z m51 -24 c-6 -5 -25 10 -25 20 0 5 6
4 14 -3 8 -7 12 -15 11 -17z m121 17 c4 -6 3 -8 -4 -4 -5 3 -12 0 -15 -6 -2
-7 -8 -9 -13 -5 -5 4 -2 12 6 17 19 12 17 12 26 -2z m1564 2 c0 -5 -2 -10 -4
-10 -3 0 -8 5 -11 10 -3 6 -1 10 4 10 6 0 11 -4 11 -10z m-1646 -36 c5 -14 4
-15 -9 -4 -17 14 -19 20 -6 20 5 0 12 -7 15 -16z m1077 -1 c13 -15 12 -15 -8
-4 -24 12 -29 21 -14 21 5 0 15 -7 22 -17z m-1181 -3 c0 -5 -4 -10 -10 -10 -5
0 -10 5 -10 10 0 6 5 10 10 10 6 0 10 -4 10 -10z m1050 -5 c19 -23 8 -25 -14
-4 -11 11 -15 19 -9 19 6 0 16 -7 23 -15z m-965 -5 c3 -6 -1 -7 -9 -4 -18 7
-21 14 -7 14 6 0 13 -4 16 -10z m935 -15 c0 -8 -2 -15 -4 -15 -2 0 -6 7 -10
15 -3 8 -1 15 4 15 6 0 10 -7 10 -15z m620 -5 c6 -11 8 -20 6 -20 -3 0 -10 9
-16 20 -6 11 -8 20 -6 20 3 0 10 -9 16 -20z m-2320 -25 c0 -5 -5 -3 -10 5 -5
8 -10 20 -10 25 0 6 5 3 10 -5 5 -8 10 -19 10 -25z m1670 13 c0 -5 -9 -4 -20
2 -11 6 -20 12 -20 14 0 2 9 2 20 -1 11 -3 20 -9 20 -15z m-109 -11 c-10 -9
-11 -8 -5 6 3 10 9 15 12 12 3 -3 0 -11 -7 -18z m267 -1 c-7 -8 -17 -12 -22
-9 -4 3 -2 9 5 14 22 13 31 11 17 -5z m-1040 -11 c1 -1 -6 -5 -17 -8 -11 -3
-26 2 -32 10 -11 12 -8 13 17 7 16 -4 30 -8 32 -9z m42 0 c-7 -8 -17 -12 -23
-8 -6 4 -3 9 9 14 27 11 28 11 14 -6z m794 6 c4 -5 -3 -7 -14 -4 -23 6 -26 13
-6 13 8 0 17 -4 20 -9z m491 -1 c-3 -5 -12 -10 -18 -10 -7 0 -6 4 3 10 19 12
23 12 15 0z m-335 -10 c-8 -5 -19 -10 -25 -10 -5 0 -3 5 5 10 8 5 20 10 25 10
6 0 3 -5 -5 -10z m-850 -15 c0 -6 -8 -11 -18 -11 -10 0 -19 5 -19 11 0 6 9 11
19 11 10 0 18 -5 18 -11z m-904 -41 c17 -41 41 -211 31 -221 -4 -3 -9 -4 -12
-1 -5 5 -16 82 -17 118 -1 8 -4 20 -9 25 -4 6 -8 30 -7 54 0 26 -5 47 -13 52
-11 7 -11 9 -1 9 7 0 20 -16 28 -36z m1564 17 c0 -5 -7 -12 -16 -15 -14 -5
-15 -4 -4 9 14 17 20 19 20 6z m-1330 -31 c0 -5 7 -7 15 -4 8 4 15 1 15 -6 0
-9 3 -10 13 -1 11 8 13 6 12 -9 -1 -11 -5 -23 -10 -27 -4 -5 -5 -2 -1 5 5 7 1
12 -11 13 -70 5 -88 14 -63 29 19 12 30 12 30 0z m1360 -10 c0 -5 -2 -10 -4
-10 -3 0 -8 5 -11 10 -3 6 -1 10 4 10 6 0 11 -4 11 -10z m-66 -45 c-5 -11 -9
-12 -19 -2 -9 8 -10 14 -2 19 16 9 27 0 21 -17z m-1220 -17 c-5 -8 -2 -9 9 -5
10 4 16 2 14 -6 -1 -7 8 -11 25 -9 26 3 73 -30 61 -42 -11 -11 -23 -6 -23 8 0
8 -10 14 -25 14 -14 0 -25 -4 -25 -9 0 -5 -7 -6 -15 -3 -8 4 -12 10 -9 15 3 5
3 9 0 9 -2 0 -11 3 -20 6 -10 4 -16 1 -16 -9 0 -9 10 -19 22 -23 19 -6 20 -7
4 -16 -20 -11 -46 -4 -46 14 0 9 3 9 12 0 7 -7 16 -12 22 -12 5 0 1 6 -10 14
-14 11 -22 11 -32 3 -10 -8 -16 -7 -23 4 -11 17 -11 21 0 38 5 8 18 12 29 9
11 -3 26 -2 33 3 19 12 21 11 13 -3z m245 -59 c4 -12 2 -12 -12 -1 -9 8 -21
11 -27 7 -5 -3 -10 1 -10 9 0 19 42 6 49 -15z m-422 15 c13 -4 21 -13 20 -25
-2 -24 -17 -25 -18 -1 0 9 -3 12 -5 5 -7 -16 -34 -5 -34 13 0 15 5 16 37 8z
m863 -33 c0 -4 -7 -8 -15 -8 -16 0 -20 9 -9 20 8 8 24 -1 24 -12z m39 -15
c-12 -13 -34 8 -25 23 5 8 11 7 21 -2 8 -7 10 -16 4 -21z m-839 3 c0 -14 -17
-10 -23 5 -4 10 -1 13 9 9 7 -3 14 -9 14 -14z m387 6 c0 -9 -9 -15 -21 -15
-21 1 -21 1 -2 15 24 18 23 18 23 0z m-318 -21 c4 3 13 1 19 -3 14 -8 6 -41
-10 -41 -5 0 -6 5 -2 11 3 6 0 15 -7 20 -22 14 -39 11 -33 -6 4 -8 11 -12 17
-8 5 3 7 1 3 -5 -7 -12 -62 -7 -80 8 -7 5 -15 7 -18 4 -3 -2 -8 2 -11 11 -8
19 3 19 31 -1 12 -8 22 -10 22 -5 0 6 7 11 16 11 8 0 12 4 9 10 -3 6 1 7 9 4
10 -4 16 -1 17 7 1 8 3 6 6 -4 2 -9 8 -15 12 -13z m222 -26 c-10 -11 -11 -10
-6 5 4 10 2 17 -4 17 -6 0 -11 5 -11 12 0 8 6 6 17 -5 14 -14 15 -19 4 -29z
m-36 21 c11 -16 1 -19 -13 -3 -7 8 -8 14 -3 14 5 0 13 -5 16 -11z m145 -15 c0
-8 -19 -13 -24 -6 -3 5 1 9 9 9 8 0 15 -2 15 -3z m80 -19 c11 -13 10 -14 -4
-9 -9 3 -16 10 -16 15 0 13 6 11 20 -6z m-416 -27 c-5 -8 -2 -9 10 -5 10 4 15
3 11 -3 -4 -7 3 -9 19 -6 30 5 36 -9 6 -17 -11 -3 -32 5 -51 19 -30 22 -31 24
-10 24 14 0 20 -4 15 -12z m331 2 c13 -6 15 -9 5 -9 -8 0 -22 4 -30 9 -18 12
-2 12 25 0z m492 -6 c-3 -3 -12 -4 -19 -1 -8 3 -5 6 6 6 11 1 17 -2 13 -5z
m580 -10 c-3 -3 -12 -4 -19 -1 -8 3 -5 6 6 6 11 1 17 -2 13 -5z m-951 -26 c4
-5 -4 -8 -17 -6 -12 1 -24 8 -26 15 -5 14 34 6 43 -9z m999 12 c-3 -5 -12 -7
-20 -3 -21 7 -19 13 6 13 11 0 18 -4 14 -10z m-565 -22 c0 -11 -48 -10 -54 1
-3 4 8 8 24 7 17 -1 30 -4 30 -8z m-380 -32 c0 -2 -7 -7 -16 -10 -8 -3 -12 -2
-9 4 6 10 25 14 25 6z m-63 -21 c0 -8 -4 -15 -8 -15 -4 0 -9 7 -13 15 -3 9 0
15 8 15 7 0 13 -7 13 -15z m-150 -1 c-3 -3 -12 -4 -19 -1 -8 3 -5 6 6 6 11 1
17 -2 13 -5z m118 -4 c3 -6 -1 -7 -9 -4 -18 7 -21 14 -7 14 6 0 13 -4 16 -10z
m-225 -26 c0 -2 -9 0 -20 6 -11 6 -20 13 -20 16 0 2 9 0 20 -6 11 -6 20 -13
20 -16z m829 -4 c7 0 9 6 6 13 -4 6 6 -3 23 -20 16 -18 36 -33 43 -33 11 0 11
-2 -1 -10 -9 -6 -17 -5 -22 3 -4 7 -8 8 -8 3 0 -5 -10 -1 -22 10 -19 17 -21
17 -15 2 9 -25 -2 -48 -22 -48 -14 0 -14 2 -1 11 11 7 5 9 -25 7 -28 -2 -39 1
-37 10 1 6 -3 12 -9 12 -6 0 -9 -7 -5 -15 3 -8 1 -15 -4 -15 -6 0 -10 4 -10 8
0 5 -7 9 -15 9 -8 0 -15 -5 -15 -11 0 -6 -4 -5 -9 3 -5 7 -14 10 -20 7 -15
-10 -14 -27 1 -24 7 2 14 -8 16 -22 3 -21 2 -22 -12 -11 -14 12 -16 12 -11 0
3 -8 17 -19 30 -26 26 -12 30 -6 25 40 -1 16 1 17 22 6 13 -7 26 -12 30 -11 4
1 4 -6 1 -15 -4 -11 -3 -14 6 -9 6 4 18 2 26 -4 12 -10 15 -10 15 1 1 10 4 8
11 -3 5 -10 16 -18 24 -18 8 0 19 -8 24 -17 6 -10 11 -13 11 -5 0 10 4 10 21
0 17 -10 23 -10 26 -1 2 7 10 10 18 7 10 -4 12 0 8 15 -3 12 -1 21 6 21 11 0
15 -18 12 -50 -1 -11 1 -11 9 3 6 9 17 17 24 17 8 0 20 -8 27 -17 13 -16 12
-17 -4 -4 -15 12 -17 12 -11 -2 4 -12 -2 -18 -23 -24 -15 -4 -35 -6 -43 -4
-11 2 -10 -3 5 -20 l20 -23 -35 20 c-24 14 -43 18 -60 13 -14 -4 -18 -7 -10
-8 9 -1 3 -9 -15 -21 -19 -12 -33 -16 -39 -10 -14 14 -29 12 -20 -2 4 -7 3 -8
-5 -4 -6 4 -19 2 -28 -6 -15 -11 -16 -11 -10 6 6 16 5 17 -8 6 -11 -9 -15 -9
-15 -1 0 7 -4 10 -9 7 -5 -4 -7 4 -3 16 4 18 2 20 -16 16 -15 -4 -22 -2 -22 8
0 8 -7 14 -15 14 -12 0 -14 7 -9 26 5 19 4 25 -5 20 -6 -4 -9 -12 -6 -17 11
-16 -12 -10 -26 8 -8 9 -9 14 -4 11 6 -4 17 2 23 13 12 19 11 19 -9 8 -19 -10
-21 -9 -16 4 3 9 -1 21 -9 27 -9 8 -14 9 -14 2 0 -6 4 -12 9 -14 4 -1 5 -12 0
-23 -7 -18 -8 -18 -8 -2 -1 10 -6 15 -11 12 -6 -3 -15 4 -20 17 -8 19 -9 18
-4 -11 4 -23 3 -31 -5 -27 -6 4 -11 3 -11 -3 0 -13 35 -32 44 -24 3 3 6 1 6
-5 0 -7 -14 -12 -32 -12 -26 0 -30 -3 -18 -11 13 -9 12 -10 -2 -5 -11 3 -18 0
-18 -7 0 -8 -4 -6 -10 3 -5 8 -10 12 -10 7 0 -12 -60 22 -60 35 0 6 3 8 7 5 3
-4 12 -2 18 3 18 15 45 1 45 -24 0 -16 2 -18 9 -7 6 8 6 24 0 38 -4 12 -6 30
-2 40 4 11 3 14 -5 9 -8 -4 -16 3 -22 18 -5 14 -15 26 -22 26 -9 0 -9 -3 -2
-8 17 -11 24 -40 11 -45 -15 -5 -57 22 -57 37 0 6 4 4 10 -4 5 -8 12 -11 16
-7 4 3 1 14 -7 24 -12 14 -12 16 0 8 11 -6 13 -4 8 7 -7 21 18 18 35 -4 19
-23 85 -31 92 -11 6 14 8 14 21 -3 13 -18 14 -18 8 4 -3 12 -1 22 3 23 5 1 21
2 36 3 33 1 50 16 19 16 -14 0 -21 5 -18 13 2 6 11 10 18 8 8 -1 30 -5 49 -7
19 -1 36 -8 39 -15 2 -6 10 3 17 21 13 31 15 32 32 16 10 -9 24 -16 31 -16z
m-729 -1 c0 -5 -4 -7 -10 -4 -10 6 -15 -9 -10 -30 1 -6 -3 -6 -10 1 -6 6 -8
18 -4 27 7 19 34 23 34 6z m505 -11 c4 0 12 6 17 14 8 10 9 10 5 -2 -2 -8 -12
-15 -22 -15 -10 0 -20 7 -22 15 -4 12 -3 12 5 2 5 -8 13 -14 17 -14z m295 16
c0 -8 -19 -13 -24 -6 -3 5 1 9 9 9 8 0 15 -2 15 -3z m-616 -37 c6 -4 -2 -5
-19 -1 -16 4 -34 11 -40 17 -7 7 -4 8 7 4 10 -3 21 -1 25 5 5 9 8 8 11 -2 3
-8 10 -19 16 -23z m39 9 c19 -14 23 -36 7 -36 -6 0 -14 8 -17 18 -4 9 -11 20
-17 24 -7 5 -7 8 -1 8 6 -1 18 -7 28 -14z m-521 -80 c45 -22 129 -50 205 -67
240 -56 259 -62 238 -69 -11 -4 -23 -3 -26 2 -3 5 -10 8 -15 7 -5 -1 -16 0
-24 3 -8 4 -82 22 -164 42 -116 29 -175 50 -272 97 -68 33 -124 62 -124 65 0
4 66 -25 182 -80z m763 55 c3 -5 0 -13 -6 -17 -7 -4 -9 -3 -5 4 3 5 0 13 -6
15 -9 4 -10 6 -1 6 6 1 14 -3 18 -8z m-480 -11 c25 -11 -1 -11 -35 0 -20 6
-21 8 -5 8 11 0 29 -3 40 -8z m232 -1 c8 -8 17 -7 32 2 16 11 23 11 33 1 9 -9
9 -12 -1 -12 -11 0 -11 -3 -1 -15 11 -13 15 -13 21 -3 7 10 9 9 9 -3 0 -23
-26 -43 -47 -35 -12 5 -13 10 -5 18 11 11 5 38 -9 38 -4 0 -6 -7 -3 -15 4 -10
0 -15 -15 -15 -15 0 -19 4 -14 17 5 12 2 15 -14 11 -12 -3 -20 0 -20 8 0 17
19 18 34 3z m575 -21 c11 -13 15 -24 9 -26 -13 -4 -42 23 -34 32 4 3 1 6 -5 6
-11 0 -17 -20 -13 -42 2 -12 -17 -10 -24 2 -3 6 -1 10 4 10 6 0 11 9 11 20 0
27 28 26 52 -2z m33 13 c10 -17 -12 -21 -25 -6 -10 12 -10 15 3 15 9 0 18 -4
22 -9z m-1085 -26 c14 -8 21 -14 15 -14 -5 0 -21 6 -35 14 -14 8 -20 14 -15
14 6 0 21 -6 35 -14z m450 0 c0 -2 -7 -5 -15 -9 -9 -3 -15 0 -15 9 0 9 6 12
15 9 8 -4 15 -7 15 -9z m-355 -35 c13 -6 15 -9 5 -9 -8 0 -22 4 -30 9 -18 12
-2 12 25 0z m959 -6 c3 -8 2 -12 -4 -9 -6 3 -10 10 -10 16 0 14 7 11 14 -7z
m-829 -24 c45 -13 55 -18 29 -14 -45 6 -138 33 -114 33 8 0 47 -9 85 -19z m90
-20 c3 -5 1 -10 -4 -10 -6 0 -11 5 -11 10 0 6 2 10 4 10 3 0 8 -4 11 -10z m51
-18 c-10 -2 -22 0 -28 6 -6 6 0 7 19 4 21 -5 23 -7 9 -10z m1619 8 c-3 -5 -10
-10 -16 -10 -5 0 -9 5 -9 10 0 6 7 10 16 10 8 0 12 -4 9 -10z m420 -10 c3 -5
1 -10 -4 -10 -6 0 -11 5 -11 10 0 6 2 10 4 10 3 0 8 -4 11 -10z m-1191 -21
c-3 -5 -16 -9 -30 -9 -20 0 -23 2 -12 13 13 15 51 11 42 -4z m1161 11 c3 -6
-4 -10 -17 -10 -18 0 -20 2 -8 10 19 12 18 12 25 0z m-405 -4 c0 -3 -4 -8 -10
-11 -5 -3 -10 -1 -10 4 0 6 5 11 10 11 6 0 10 -2 10 -4z m-1176 -75 c33 -6 62
-14 65 -17 3 -4 -10 -4 -29 -1 -19 4 -54 9 -78 13 -23 4 -45 11 -48 16 -4 6 1
8 12 5 11 -3 46 -11 78 -16z m1216 -3 c0 -11 -58 -10 -65 1 -3 6 10 9 30 8 19
-1 35 -5 35 -9z m100 2 c0 -5 -5 -10 -11 -10 -5 0 -7 5 -4 10 3 6 8 10 11 10
2 0 4 -4 4 -10z m-271 -4 c-2 -2 -56 -11 -120 -20 -86 -12 -197 -16 -433 -16
-174 0 -323 3 -331 7 -7 5 131 7 308 6 218 -2 348 1 402 10 84 13 182 20 174
13z m201 0 c0 -3 -4 -8 -10 -11 -5 -3 -10 -1 -10 4 0 6 5 11 10 11 6 0 10 -2
10 -4z m-1129 -24 c-13 -2 -27 0 -32 5 -6 6 3 7 23 4 28 -4 29 -6 9 -9z m1051
-2 c18 -8 9 -9 -39 -6 -44 3 -63 1 -63 -7 0 -7 -5 -5 -10 3 -5 8 -10 10 -10 4
0 -6 -6 -11 -12 -11 -23 -1 -43 -8 -50 -18 -5 -6 -8 -4 -8 5 0 13 -1 13 -10 0
-5 -8 -10 -10 -10 -3 0 6 -9 9 -20 6 -11 -3 -17 -10 -14 -15 4 -7 0 -7 -12 0
-11 5 -28 8 -39 6 -11 -2 -82 -5 -157 -6 -84 -2 -138 -7 -138 -13 0 -5 -5 -3
-10 5 -9 13 -10 13 -10 0 0 -13 -1 -13 -10 0 -8 12 -11 13 -19 1 -6 -9 -11
-10 -15 -2 -4 6 -11 9 -15 7 -19 -12 -70 -15 -77 -5 -4 8 -9 7 -15 -2 -5 -8
-9 -9 -9 -3 0 7 -40 11 -112 13 -62 1 -114 4 -117 6 -2 3 135 5 306 5 263 0
331 3 449 21 76 11 141 22 143 25 6 6 77 -5 103 -16z"/>
<path d="M5041 6304 c0 -11 3 -14 6 -6 3 7 2 16 -1 19 -3 4 -6 -2 -5 -13z"/>
<path d="M4516 4733 c-6 -14 -5 -15 5 -6 7 7 10 15 7 18 -3 3 -9 -2 -12 -12z"/>
<path d="M4496 4645 c-3 -8 -1 -15 3 -15 5 0 11 7 15 15 3 8 1 15 -3 15 -5 0
-11 -7 -15 -15z"/>
<path d="M4495 4420 c-3 -5 -1 -10 4 -10 6 0 11 5 11 10 0 6 -2 10 -4 10 -3 0
-8 -4 -11 -10z"/>
<path d="M3785 2519 c-9 -14 -2 -20 14 -10 8 6 9 11 3 15 -6 3 -14 1 -17 -5z"/>
<path d="M3725 2400 c-3 -5 -1 -10 4 -10 6 0 11 5 11 10 0 6 -2 10 -4 10 -3 0
-8 -4 -11 -10z"/>
<path d="M3678 2243 c7 -3 16 -2 19 1 4 3 -2 6 -13 5 -11 0 -14 -3 -6 -6z"/>
<path d="M4230 2542 c0 -15 25 -21 41 -11 9 5 9 9 2 9 -6 0 -18 3 -27 6 -9 3
-16 2 -16 -4z"/>
<path d="M4340 2386 c0 -2 7 -9 15 -16 13 -11 14 -10 9 4 -5 14 -24 23 -24 12z"/>
<path d="M4007 1633 c-10 -9 -9 -23 1 -23 5 0 9 7 9 15 0 17 -1 18 -10 8z"/>
<path d="M4983 1330 c2 -8 14 -16 28 -17 19 -1 20 -1 4 4 -11 3 -24 10 -28 17
-6 7 -7 6 -4 -4z"/>
<path d="M4825 1280 c3 -5 11 -10 16 -10 6 0 7 5 4 10 -3 6 -11 10 -16 10 -6
0 -7 -4 -4 -10z"/>
<path d="M4736 1247 c3 -10 9 -15 12 -12 3 3 0 11 -7 18 -10 9 -11 8 -5 -6z"/>
<path d="M4730 1209 c0 -5 5 -7 10 -4 6 3 10 8 10 11 0 2 -4 4 -10 4 -5 0 -10
-5 -10 -11z"/>
<path d="M4930 1190 c0 -5 -9 -10 -19 -10 -18 0 -39 -28 -23 -31 39 -7 50 -5
44 9 -3 9 -1 13 5 9 7 -5 9 0 6 13 -6 21 -13 27 -13 10z"/>
<path d="M4692 1166 c7 -8 15 -12 17 -11 5 6 -10 25 -20 25 -5 0 -4 -6 3 -14z"/>
<path d="M4990 1173 c0 -7 9 -17 20 -23 16 -9 20 -8 20 5 0 9 -5 13 -11 9 -6
-3 -15 0 -20 7 -6 10 -9 10 -9 2z"/>
<path d="M5061 1164 c0 -11 3 -14 6 -6 3 7 2 16 -1 19 -3 4 -6 -2 -5 -13z"/>
<path d="M5055 1130 c-3 -6 1 -7 9 -4 18 7 21 14 7 14 -6 0 -13 -4 -16 -10z"/>
<path d="M4940 1120 c0 -5 5 -10 11 -10 5 0 7 5 4 10 -3 6 -8 10 -11 10 -2 0
-4 -4 -4 -10z"/>
<path d="M4982 1110 c0 -14 2 -19 5 -12 2 6 2 18 0 25 -3 6 -5 1 -5 -13z"/>
<path d="M4578 1223 c7 -3 16 -2 19 1 4 3 -2 6 -13 5 -11 0 -14 -3 -6 -6z"/>
<path d="M7372 7840 c0 -19 2 -27 5 -17 2 9 2 25 0 35 -3 9 -5 1 -5 -18z"/>
<path d="M5225 7620 c-16 -4 -51 -15 -77 -23 -48 -15 -59 -12 -35 12 10 10 9
11 -5 6 -10 -4 -18 -11 -18 -17 0 -5 -4 -7 -8 -4 -4 2 -14 1 -22 -5 -12 -7 -9
-9 10 -9 22 -1 23 -2 7 -11 -14 -8 -15 -14 -7 -24 11 -13 63 -7 91 11 8 5 52
13 99 19 l85 11 -35 22 c-38 24 -40 24 -85 12z"/>
<path d="M5590 7620 c0 -5 5 -10 10 -10 6 0 10 5 10 10 0 6 -4 10 -10 10 -5 0
-10 -4 -10 -10z"/>
<path d="M5512 7403 c-42 -8 -17 -28 37 -29 28 -1 54 -4 58 -7 11 -12 23 -8
23 8 0 29 -50 41 -118 28z"/>
<path d="M5685 7389 c-11 -17 1 -21 15 -4 8 9 8 15 2 15 -6 0 -14 -5 -17 -11z"/>
<path d="M5001 7364 c0 -11 3 -14 6 -6 3 7 2 16 -1 19 -3 4 -6 -2 -5 -13z"/>
<path d="M5611 7345 l-23 -13 21 -7 c22 -7 51 9 51 26 0 12 -20 10 -49 -6z"/>
<path d="M5761 7310 c14 -31 19 -36 19 -24 0 6 -7 19 -16 30 -14 18 -14 18 -3
-6z"/>
<path d="M5781 7254 c0 -11 3 -14 6 -6 3 7 2 16 -1 19 -3 4 -6 -2 -5 -13z"/>
<path d="M5702 7179 c32 -12 42 -37 29 -72 -12 -31 -29 -43 -27 -19 1 15 -9
17 -94 15 -54 -1 -96 -7 -98 -13 -2 -5 -13 -10 -23 -10 -11 0 -29 -4 -39 -10
-10 -5 -44 -12 -75 -15 -44 -4 -56 -3 -52 7 2 7 12 12 21 12 9 -1 16 4 16 12
0 8 7 14 15 14 8 0 23 8 33 18 10 9 27 23 38 30 17 11 17 12 -6 6 -14 -4 -32
-7 -40 -7 -36 1 -100 -83 -100 -132 0 -29 57 -95 68 -79 12 16 54 15 104 -2
26 -8 56 -13 67 -9 23 7 71 -39 71 -70 1 -19 1 -19 14 -2 12 15 15 16 26 2 12
-14 15 -14 31 1 10 9 15 21 13 28 -3 7 4 37 15 67 23 63 51 180 51 215 0 22
-4 24 -42 23 -40 -1 -41 -1 -16 -10z"/>
<path d="M5498 7173 c7 -3 16 -2 19 1 4 3 -2 6 -13 5 -11 0 -14 -3 -6 -6z"/>
<path d="M5703 6789 c-6 -6 -39 -12 -73 -14 -87 -5 -96 -19 -24 -35 44 -10 79
3 102 38 15 23 13 29 -5 11z"/>
<path d="M6983 6588 c-10 -17 -4 -59 10 -77 6 -7 16 -22 22 -33 5 -11 32 -28
58 -38 27 -10 55 -24 63 -30 19 -17 18 -55 -3 -76 -17 -17 -17 -18 0 -11 12 4
20 1 25 -11 4 -12 8 -6 13 23 5 31 2 45 -12 64 -11 13 -19 35 -19 48 0 29 -14
44 -66 71 -41 21 -75 62 -52 62 30 0 58 -13 58 -27 0 -8 8 -13 18 -11 9 1 23
-1 30 -5 6 -5 12 -4 12 2 0 5 -13 18 -30 28 -16 9 -30 21 -30 25 0 13 -88 9
-97 -4z"/>
<path d="M6672 6211 c-10 -6 -8 -10 10 -14 12 -4 32 -7 43 -7 20 1 20 1 1 15
-22 17 -35 18 -54 6z"/>
<path d="M6991 6202 c0 -7 -11 -23 -23 -36 -13 -12 -36 -39 -51 -59 -15 -20
-36 -37 -46 -37 -9 0 -25 -6 -35 -13 -16 -11 -16 -15 -2 -42 8 -16 12 -33 9
-38 -11 -19 -8 -52 7 -68 17 -18 32 -15 24 5 -5 13 29 100 48 123 16 20 50
-13 42 -40 -5 -16 -3 -19 10 -14 9 4 16 3 16 -2 0 -15 -29 -33 -55 -35 -14 0
-23 -5 -21 -11 2 -5 16 -9 32 -8 20 2 43 19 82 63 29 33 59 60 65 60 7 1 26
12 42 26 28 24 25 24 -32 -6 -34 -18 -66 -29 -71 -26 -6 3 -22 27 -37 52 -25
43 -26 47 -10 64 9 10 15 27 12 37 -3 10 -5 12 -6 5z"/>
<path d="M7189 6124 l-24 -26 38 22 c20 12 44 19 52 16 8 -3 15 -1 15 4 0 21
-57 10 -81 -16z"/>
<path d="M7270 5996 c0 -2 7 -6 15 -10 8 -3 15 -1 15 4 0 6 -7 10 -15 10 -8 0
-15 -2 -15 -4z"/>
<path d="M7357 5949 c7 -7 15 -10 18 -7 3 3 -2 9 -12 12 -14 6 -15 5 -6 -5z"/>
<path d="M7124 5914 c-18 -14 -18 -15 4 -4 12 6 22 13 22 15 0 8 -5 6 -26 -11z"/>
<path d="M7020 5910 c0 -13 18 -22 24 -11 3 5 -1 11 -9 15 -8 3 -15 1 -15 -4z"/>
<path d="M5001 5844 c0 -11 3 -14 6 -6 3 7 2 16 -1 19 -3 4 -6 -2 -5 -13z"/>
<path d="M7280 5825 c0 -12 43 -25 63 -19 22 7 22 8 -3 15 -30 8 -60 11 -60 4z"/>
<path d="M3441 5804 c0 -11 3 -14 6 -6 3 7 2 16 -1 19 -3 4 -6 -2 -5 -13z"/>
<path d="M4996 5812 c-3 -6 -1 -14 5 -17 15 -10 25 3 12 16 -7 7 -13 7 -17 1z"/>
<path d="M6993 5792 c-13 -2 -23 -8 -23 -13 0 -15 30 -23 42 -11 15 15 6 27
-19 24z"/>
<path d="M3422 5756 c7 -8 15 -12 17 -11 5 6 -10 25 -20 25 -5 0 -4 -6 3 -14z"/>
<path d="M7040 5730 c0 -5 4 -10 9 -10 6 0 13 5 16 10 3 6 -1 10 -9 10 -9 0
-16 -4 -16 -10z"/>
<path d="M3364 5699 c-3 -6 -2 -15 4 -21 6 -6 12 -6 17 3 5 8 4 10 -3 5 -7 -4
-12 -3 -12 3 0 5 6 12 13 14 9 4 9 6 0 6 -6 1 -15 -4 -19 -10z"/>
<path d="M6950 5695 c1 -5 31 -72 68 -147 73 -147 73 -159 5 -131 -18 7 -43
13 -55 12 -22 0 -22 -1 -3 -9 18 -8 18 -9 -4 -9 -19 -1 -22 -4 -14 -12 8 -8
43 -9 113 -4 82 6 100 10 96 22 -3 8 2 16 12 19 54 17 51 22 -10 17 -77 -7
-91 0 -109 55 -13 40 -99 203 -99 187z"/>
<path d="M5528 5556 c-3 -14 -2 -24 3 -23 4 1 15 -7 23 -18 14 -19 15 -18 6
14 -13 47 -26 58 -32 27z"/>
<path d="M4926 5551 c-4 -7 -5 -15 -2 -18 9 -9 19 4 14 18 -4 11 -6 11 -12 0z"/>
<path d="M7384 5502 c-6 -9 -33 -28 -60 -42 -35 -17 -44 -25 -31 -28 21 -4 95
41 104 64 8 22 -1 26 -13 6z"/>
<path d="M4902 5463 c-4 -60 -1 -74 19 -94 l22 -22 -7 24 c-4 13 -8 31 -8 39
0 8 -6 21 -12 29 -9 12 -8 13 7 8 16 -6 16 -5 1 18 -9 14 -17 25 -18 25 -1 0
-3 -12 -4 -27z"/>
<path d="M5564 5474 c3 -9 6 -18 6 -20 0 -2 4 -4 9 -4 5 0 7 9 4 20 -3 11 -10
20 -15 20 -6 0 -7 -7 -4 -16z"/>
<path d="M4886 5347 c3 -10 9 -15 12 -12 3 3 0 11 -7 18 -10 9 -11 8 -5 -6z"/>
<path d="M7350 5296 c0 -9 5 -16 10 -16 6 0 10 4 10 9 0 6 -4 13 -10 16 -5 3
-10 -1 -10 -9z"/>
<path d="M5670 5219 c0 -5 5 -7 10 -4 6 3 10 8 10 11 0 2 -4 4 -10 4 -5 0 -10
-5 -10 -11z"/>
<path d="M5745 5190 c3 -5 8 -10 11 -10 2 0 4 5 4 10 0 6 -5 10 -11 10 -5 0
-7 -4 -4 -10z"/>
<path d="M7210 5185 c0 -8 2 -15 4 -15 2 0 6 7 10 15 3 8 1 15 -4 15 -6 0 -10
-7 -10 -15z"/>
<path d="M5805 5132 c6 -21 4 -23 -14 -17 -12 4 -21 2 -21 -4 0 -6 16 -11 37
-11 l36 0 -19 23 c-10 12 -21 24 -23 27 -2 3 0 -6 4 -18z"/>
<path d="M7326 5092 c-3 -5 1 -9 9 -9 8 0 12 4 9 9 -3 4 -7 8 -9 8 -2 0 -6 -4
-9 -8z"/>
<path d="M6921 4846 c2 -2 15 -9 29 -15 24 -11 24 -11 6 3 -16 13 -49 24 -35
12z"/>
<path d="M5811 4824 c0 -11 3 -14 6 -6 3 7 2 16 -1 19 -3 4 -6 -2 -5 -13z"/>
<path d="M7018 4803 c7 -3 16 -2 19 1 4 3 -2 6 -13 5 -11 0 -14 -3 -6 -6z"/>
<path d="M7055 4800 c6 -10 85 -18 85 -8 0 5 -12 8 -27 9 -16 0 -36 2 -46 4
-9 2 -15 0 -12 -5z"/>
<path d="M5781 4786 c-10 -12 -8 -13 8 -9 12 3 18 9 15 14 -7 12 -10 11 -23
-5z"/>
<path d="M7193 4783 c9 -2 25 -2 35 0 9 3 1 5 -18 5 -19 0 -27 -2 -17 -5z"/>
<path d="M5827 4769 c7 -7 15 -10 18 -7 3 3 -2 9 -12 12 -14 6 -15 5 -6 -5z"/>
<path d="M5750 4750 c0 -5 5 -10 11 -10 5 0 7 5 4 10 -3 6 -8 10 -11 10 -2 0
-4 -4 -4 -10z"/>
<path d="M5850 4730 c0 -5 5 -10 10 -10 6 0 10 5 10 10 0 6 -4 10 -10 10 -5 0
-10 -4 -10 -10z"/>
<path d="M1909 4696 c19 -14 36 -26 38 -26 2 0 47 -7 100 -16 186 -30 712 -96
726 -91 5 1 -188 36 -429 76 -241 41 -446 76 -454 79 -8 2 0 -7 19 -22z"/>
<path d="M5766 4695 c4 -8 8 -15 10 -15 2 0 4 7 4 15 0 8 -4 15 -10 15 -5 0
-7 -7 -4 -15z"/>
<path d="M5831 4706 c2 -2 15 -9 29 -16 23 -12 24 -12 11 3 -7 10 -20 17 -29
17 -8 0 -13 -2 -11 -4z"/>
<path d="M5020 4655 c0 -8 7 -15 16 -15 14 0 14 3 4 15 -7 8 -14 15 -16 15 -2
0 -4 -7 -4 -15z"/>
<path d="M5455 4660 c3 -5 8 -10 11 -10 2 0 4 5 4 10 0 6 -5 10 -11 10 -5 0
-7 -4 -4 -10z"/>
<path d="M5074 4649 c-2 -3 4 -15 12 -25 9 -10 12 -13 8 -5 -4 9 -3 12 4 8 14
-10 39 1 39 17 0 13 -55 17 -63 5z"/>
<path d="M5650 4645 c0 -8 4 -15 10 -15 5 0 7 7 4 15 -4 8 -8 15 -10 15 -2 0
-4 -7 -4 -15z"/>
<path d="M3060 4630 c0 -5 5 -10 11 -10 5 0 7 5 4 10 -3 6 -8 10 -11 10 -2 0
-4 -4 -4 -10z"/>
<path d="M5848 4633 c7 -3 16 -2 19 1 4 3 -2 6 -13 5 -11 0 -14 -3 -6 -6z"/>
<path d="M5108 4598 c-10 -12 -18 -25 -18 -29 0 -14 19 -19 26 -8 4 8 9 7 15
-2 5 -9 8 -1 7 24 -1 43 -6 45 -30 15z"/>
<path d="M5913 4568 c-2 -16 0 -16 13 -4 17 18 18 23 1 23 -7 0 -14 -9 -14
-19z"/>
<path d="M1867 4555 c39 -24 50 -26 135 -23 l93 3 -110 18 c-60 10 -121 21
-135 24 -19 3 -15 -2 17 -22z"/>
<path d="M5595 4570 c-3 -5 -1 -10 4 -10 6 0 11 5 11 10 0 6 -2 10 -4 10 -3 0
-8 -4 -11 -10z"/>
<path d="M5155 4560 c-3 -5 -2 -10 4 -10 17 0 25 -42 10 -51 -11 -7 -10 -9 3
-9 14 0 17 -7 14 -30 -2 -16 1 -30 6 -30 6 0 8 9 5 20 -3 13 0 20 9 20 8 0 11
-6 8 -15 -12 -31 5 -62 37 -69 29 -5 30 -8 28 -45 -2 -22 0 -43 4 -47 4 -4 7
1 8 12 0 10 2 42 4 69 4 49 4 50 -25 51 -30 1 -40 -10 -17 -19 7 -3 5 -6 -5
-6 -12 -1 -18 6 -18 19 0 11 7 20 15 20 8 0 15 5 15 11 0 6 -6 9 -13 6 -8 -3
-14 4 -15 19 -2 27 -31 66 -44 58 -4 -3 -8 0 -8 5 0 6 7 11 16 11 8 0 12 5 9
10 -3 6 -15 10 -25 10 -10 0 -22 -4 -25 -10z"/>
<path d="M2803 4553 c9 -2 23 -2 30 0 6 3 -1 5 -18 5 -16 0 -22 -2 -12 -5z"/>
<path d="M5075 4540 c-3 -5 -17 -10 -30 -10 -13 0 -26 -4 -29 -8 -2 -4 23 -7
57 -6 40 0 62 5 65 14 4 10 -3 11 -27 7 -20 -4 -30 -3 -26 3 3 6 4 10 1 10 -3
0 -8 -4 -11 -10z"/>
<path d="M1610 4512 c23 -14 149 -30 340 -43 170 -11 740 -6 775 7 22 9 18 21
-7 27 -41 10 -1124 19 -1108 9z"/>
<path d="M5047 4489 c7 -7 15 -10 18 -7 3 3 -2 9 -12 12 -14 6 -15 5 -6 -5z"/>
<path d="M5126 4485 c4 -8 8 -15 10 -15 2 0 4 7 4 15 0 8 -4 15 -10 15 -5 0
-7 -7 -4 -15z"/>
<path d="M5576 4485 c-3 -9 0 -15 9 -15 16 0 20 16 6 24 -5 3 -11 -1 -15 -9z"/>
<path d="M5915 4479 c4 -6 -1 -17 -11 -24 -18 -13 -18 -14 4 -8 22 5 32 43 11
43 -5 0 -7 -5 -4 -11z"/>
<path d="M5773 4465 c0 -8 4 -15 9 -15 4 0 8 4 8 9 0 6 -4 12 -8 15 -5 3 -9
-1 -9 -9z"/>
<path d="M5720 4457 c0 -10 8 -17 18 -17 9 0 13 4 7 8 -5 4 -13 11 -17 16 -5
5 -8 2 -8 -7z"/>
<path d="M5859 4445 c9 -20 11 -27 11 -45 0 -5 4 -10 9 -10 13 0 8 24 -12 51
-12 17 -15 18 -8 4z"/>
<path d="M2941 4423 l-34 -4 34 -23 c19 -13 133 -80 254 -151 121 -70 303
-176 405 -235 301 -175 304 -172 20 17 -389 259 -620 405 -637 401 -4 0 -23
-3 -42 -5z m99 -59 c0 -2 -9 0 -20 6 -11 6 -20 13 -20 16 0 2 9 0 20 -6 11 -6
20 -13 20 -16z m100 -60 c0 -2 -9 0 -20 6 -11 6 -20 13 -20 16 0 2 9 0 20 -6
11 -6 20 -13 20 -16z"/>
<path d="M5040 4420 c0 -5 5 -10 11 -10 5 0 7 5 4 10 -3 6 -8 10 -11 10 -2 0
-4 -4 -4 -10z"/>
<path d="M5777 4418 c4 -7 8 -19 8 -27 0 -8 6 -16 12 -18 10 -4 10 3 2 26 -6
17 -15 31 -21 31 -5 0 -6 -6 -1 -12z"/>
<path d="M5825 4390 c-3 -6 1 -7 9 -4 18 7 21 14 7 14 -6 0 -13 -4 -16 -10z"/>
<path d="M4860 4385 c0 -11 42 -46 51 -43 6 2 -4 14 -20 26 -17 12 -31 20 -31
17z"/>
<path d="M5916 4373 c-6 -14 -5 -15 5 -6 7 7 10 15 7 18 -3 3 -9 -2 -12 -12z"/>
<path d="M5855 4370 c3 -5 11 -10 16 -10 6 0 7 5 4 10 -3 6 -11 10 -16 10 -6
0 -7 -4 -4 -10z"/>
<path d="M5770 4340 c0 -5 5 -10 11 -10 5 0 7 5 4 10 -3 6 -8 10 -11 10 -2 0
-4 -4 -4 -10z"/>
<path d="M5805 4320 c-15 -5 -11 -8 20 -13 24 -4 44 -2 50 5 7 7 6 9 -5 6 -8
-3 -22 -2 -30 2 -8 4 -24 4 -35 0z"/>
<path d="M5910 4309 c0 -5 5 -7 10 -4 6 3 10 8 10 11 0 2 -4 4 -10 4 -5 0 -10
-5 -10 -11z"/>
<path d="M5850 4277 c0 -9 77 -3 87 6 3 4 -15 5 -41 4 -25 -1 -46 -6 -46 -10z"/>
<path d="M7471 4065 c-24 -63 -28 -96 -10 -78 11 11 41 124 35 131 -2 2 -13
-22 -25 -53z"/>
<path d="M5540 4050 c0 -5 5 -10 10 -10 6 0 10 5 10 10 0 6 -4 10 -10 10 -5 0
-10 -4 -10 -10z"/>
<path d="M4085 3880 c-4 -6 -14 -9 -24 -6 -9 4 -7 -2 8 -14 33 -28 55 -27 40
3 -16 30 -16 30 -24 17z"/>
<path d="M5606 3874 c-5 -14 -4 -15 9 -4 17 14 19 20 6 20 -5 0 -12 -7 -15
-16z"/>
<path d="M4990 3861 c0 -5 5 -13 10 -16 6 -3 10 -2 10 4 0 5 -4 13 -10 16 -5
3 -10 2 -10 -4z"/>
<path d="M5610 3839 c0 -5 5 -7 10 -4 6 3 10 8 10 11 0 2 -4 4 -10 4 -5 0 -10
-5 -10 -11z"/>
<path d="M5012 3788 c5 -24 14 -47 19 -53 11 -10 4 28 -12 73 -14 36 -18 25
-7 -20z"/>
<path d="M5392 3765 c0 -16 2 -22 5 -12 2 9 2 23 0 30 -3 6 -5 -1 -5 -18z"/>
<path d="M5053 3680 c6 -16 15 -30 19 -30 5 0 2 14 -7 30 -9 17 -17 30 -19 30
-3 0 1 -13 7 -30z"/>
<path d="M5645 3690 c3 -5 8 -10 11 -10 2 0 4 5 4 10 0 6 -5 10 -11 10 -5 0
-7 -4 -4 -10z"/>
<path d="M5456 3617 c3 -10 9 -15 12 -12 3 3 0 11 -7 18 -10 9 -11 8 -5 -6z"/>
<path d="M4412 3593 c-5 -16 -13 -36 -17 -45 -5 -13 -2 -15 12 -12 13 4 19 16
20 45 3 46 -1 49 -15 12z"/>
<path d="M6381 3505 c0 -11 6 -31 14 -45 8 -14 14 -36 15 -48 0 -25 98 -282
107 -282 3 0 2 15 -2 33 -4 17 -8 42 -9 54 -1 12 -5 25 -9 29 -4 4 -7 17 -7
28 0 12 -9 35 -20 51 -11 17 -20 35 -20 41 0 21 -69 159 -69 139z"/>
<path d="M4366 3491 c-4 -7 -5 -15 -2 -18 9 -9 19 4 14 18 -4 11 -6 11 -12 0z"/>
<path d="M5781 3454 c0 -11 3 -14 6 -6 3 7 2 16 -1 19 -3 4 -6 -2 -5 -13z"/>
<path d="M4960 3230 c0 -5 5 -10 11 -10 5 0 7 5 4 10 -3 6 -8 10 -11 10 -2 0
-4 -4 -4 -10z"/>
<path d="M5035 2950 c3 -5 8 -10 11 -10 2 0 4 5 4 10 0 6 -5 10 -11 10 -5 0
-7 -4 -4 -10z"/>
<path d="M4818 2849 c13 -5 49 -11 80 -14 l57 -5 -55 15 c-30 8 -66 14 -80 14
l-25 0 23 -10z"/>
<path d="M4960 2826 c0 -2 9 -6 20 -9 11 -3 20 -1 20 4 0 5 -9 9 -20 9 -11 0
-20 -2 -20 -4z"/>
<path d="M4536 2795 c-3 -8 -1 -15 4 -15 6 0 10 7 10 15 0 8 -2 15 -4 15 -2 0
-6 -7 -10 -15z"/>
<path d="M5185 2679 c-4 -6 -4 -13 -1 -16 3 -4 6 -1 6 6 0 7 5 9 12 5 7 -4 8
-3 4 4 -9 15 -13 15 -21 1z"/>
<path d="M6360 2556 c0 -8 -3 -22 -7 -32 -4 -11 -3 -15 4 -11 15 9 23 46 12
53 -5 3 -9 -1 -9 -10z"/>
<path d="M6120 2530 c-8 -5 -12 -11 -9 -14 2 -3 11 -1 19 4 8 5 12 11 9 14 -2
3 -11 1 -19 -4z"/>
<path d="M6070 2482 c0 -22 28 -82 39 -82 14 0 43 31 36 38 -3 4 -9 1 -13 -5
-10 -16 -28 -4 -46 32 -9 17 -16 24 -16 17z"/>
<path d="M6138 2388 c-35 -34 -35 -39 -3 -25 14 7 25 16 25 20 0 5 5 5 10 2
12 -7 13 5 2 20 -4 7 -18 0 -34 -17z"/>
<path d="M5225 2370 c-3 -5 -2 -10 4 -10 5 0 13 5 16 10 3 6 2 10 -4 10 -5 0
-13 -4 -16 -10z"/>
<path d="M5259 2332 c-10 -4 -14 -13 -10 -24 5 -15 8 -13 18 7 6 14 10 25 10
24 -1 0 -9 -3 -18 -7z"/>
<path d="M5930 2331 c0 -10 19 -25 25 -20 1 2 -3 10 -11 17 -8 7 -14 8 -14 3z"/>
<path d="M5293 2305 c0 -8 4 -12 9 -9 5 3 15 0 23 -6 12 -10 15 -9 15 4 0 10
-4 15 -9 11 -5 -3 -12 -1 -16 5 -9 15 -22 12 -22 -5z"/>
<path d="M5360 2290 c0 -5 7 -7 15 -4 8 4 15 8 15 10 0 2 -7 4 -15 4 -8 0 -15
-4 -15 -10z"/>
<path d="M5940 2280 c6 -12 9 -24 6 -27 -12 -12 16 -43 37 -42 16 1 17 3 5 6
-19 5 -33 37 -23 52 3 6 -4 15 -15 21 -20 11 -21 10 -10 -10z"/>
<path d="M5262 2241 c-5 -3 -12 -15 -16 -27 -5 -18 -1 -20 33 -22 22 -2 42 2
46 8 14 22 -39 56 -63 41z m12 -26 c3 -8 1 -15 -4 -15 -6 0 -10 7 -10 15 0 8
2 15 4 15 2 0 6 -7 10 -15z m31 4 c11 -17 -1 -21 -15 -4 -8 9 -8 15 -2 15 6 0
14 -5 17 -11z"/>
<path d="M5400 2241 c0 -5 5 -13 10 -16 6 -3 10 -2 10 4 0 5 -4 13 -10 16 -5
3 -10 2 -10 -4z"/>
<path d="M5202 2191 c-10 -6 -9 -10 7 -14 14 -3 21 0 21 9 0 16 -9 18 -28 5z"/>
<path d="M5350 2180 c-7 -13 -7 -20 0 -20 5 0 10 5 10 11 0 5 5 7 10 4 6 -3
10 -2 10 4 0 20 -19 21 -30 1z"/>
<path d="M5261 2167 c7 -7 21 -14 31 -14 16 -2 16 0 4 13 -19 19 -52 20 -35 1z"/>
<path d="M5308 2168 c8 -8 9 -15 1 -25 -9 -10 -8 -13 3 -13 7 0 15 11 16 25 1
18 -3 25 -15 25 -13 0 -14 -3 -5 -12z"/>
<path d="M5187 2156 c-11 -8 -14 -15 -7 -18 6 -2 12 -12 14 -22 1 -10 17 -27
35 -39 l33 -21 -6 21 c-5 16 -2 23 14 28 24 8 26 21 4 29 -9 4 -13 2 -8 -5 4
-6 0 -15 -7 -20 -8 -5 -17 -3 -21 4 -6 9 -8 9 -8 0 0 -7 -5 -13 -11 -13 -6 0
-9 7 -5 15 3 8 1 15 -5 15 -6 0 -8 9 -4 20 7 23 6 24 -18 6z"/>
<path d="M5450 2132 c0 -19 29 -35 43 -23 8 6 16 10 18 8 2 -1 -3 4 -11 11
-10 8 -16 9 -18 2 -3 -8 -8 -7 -18 1 -8 7 -14 7 -14 1z"/>
<path d="M5855 2130 c-3 -6 1 -7 9 -4 18 7 21 14 7 14 -6 0 -13 -4 -16 -10z"/>
<path d="M5427 2113 c6 -15 4 -16 -9 -6 -20 17 -31 5 -13 -14 8 -8 20 -11 26
-7 6 3 15 0 20 -7 7 -12 9 -11 10 1 0 10 3 8 9 -5 6 -14 9 -16 9 -4 1 8 -10
25 -24 37 -30 27 -36 28 -28 5z"/>
<path d="M5606 2115 c4 -8 8 -15 10 -15 2 0 4 7 4 15 0 8 -4 15 -10 15 -5 0
-7 -7 -4 -15z"/>
<path d="M5675 2100 c-3 -5 -2 -10 4 -10 5 0 18 -3 28 -7 16 -6 16 -5 4 10
-15 19 -27 22 -36 7z"/>
<path d="M5728 2098 c6 -6 18 -8 28 -6 14 3 12 5 -9 10 -19 3 -25 2 -19 -4z"/>
<path d="M5508 2093 c-10 -2 -18 -11 -18 -19 0 -16 17 -19 22 -4 2 6 13 2 26
-10 12 -11 22 -16 22 -11 0 6 -9 15 -20 21 -11 6 -18 15 -15 21 4 5 5 8 3 8
-2 -1 -11 -3 -20 -6z"/>
<path d="M5320 2080 c0 -5 7 -10 16 -10 8 0 12 5 9 10 -3 6 -10 10 -16 10 -5
0 -9 -4 -9 -10z"/>
<path d="M5690 2046 c0 -2 7 -6 15 -10 8 -3 15 -1 15 4 0 6 -7 10 -15 10 -8 0
-15 -2 -15 -4z"/>
<path d="M5632 2008 c2 -19 10 -24 41 -26 20 -2 37 1 37 7 0 15 -18 23 -25 11
-3 -5 -15 -10 -27 -10 -15 0 -19 5 -15 20 3 11 1 20 -5 20 -5 0 -8 -10 -6 -22z"/>
<path d="M5725 2009 c-4 -6 -5 -12 -2 -15 2 -3 7 2 10 11 7 17 1 20 -8 4z"/>
<path d="M5830 2003 c0 -7 -5 -13 -11 -13 -5 0 -7 -5 -3 -11 5 -8 9 -8 14 1 6
9 10 8 17 -5 9 -15 11 -16 16 -1 9 22 -1 43 -18 43 -8 0 -15 -6 -15 -14z"/>
<path d="M5495 1990 c3 -5 8 -10 11 -10 2 0 4 5 4 10 0 6 -5 10 -11 10 -5 0
-7 -4 -4 -10z"/>
<path d="M5880 1990 c0 -6 7 -10 15 -10 8 0 15 2 15 4 0 2 -7 6 -15 10 -8 3
-15 1 -15 -4z"/>
<path d="M5263 1973 c-10 -4 -9 -8 2 -20 8 -8 13 -19 10 -24 -4 -5 -1 -9 4 -9
12 0 13 17 3 41 -4 9 -13 14 -19 12z"/>
<path d="M6225 1939 c4 -19 14 -46 21 -61 8 -15 14 -30 13 -34 0 -3 3 -9 7
-12 4 -4 4 -1 -1 7 -6 10 -2 12 16 6 13 -3 19 -3 13 2 -6 4 -14 22 -17 38 -3
17 -4 24 -1 18 3 -7 10 -13 15 -13 22 0 5 27 -32 54 l-41 29 7 -34z"/>
<path d="M5355 1930 c3 -5 8 -10 11 -10 2 0 4 5 4 10 0 6 -5 10 -11 10 -5 0
-7 -4 -4 -10z"/>
<path d="M5405 1930 c-4 -6 -10 -8 -15 -5 -4 3 -5 -5 -2 -17 5 -19 7 -20 10
-5 2 9 8 15 13 12 5 -4 9 1 9 9 0 18 -6 21 -15 6z"/>
<path d="M5285 1900 c3 -5 8 -10 11 -10 2 0 4 5 4 10 0 6 -5 10 -11 10 -5 0
-7 -4 -4 -10z"/>
<path d="M5310 1870 c0 -5 6 -10 14 -10 8 0 18 5 21 10 3 6 -3 10 -14 10 -12
0 -21 -4 -21 -10z"/>
<path d="M6320 1870 c0 -5 5 -10 11 -10 5 0 7 5 4 10 -3 6 -8 10 -11 10 -2 0
-4 -4 -4 -10z"/>
<path d="M6310 1718 c-1 -7 -23 -58 -50 -113 -26 -55 -47 -101 -46 -102 1 -2
18 24 36 57 19 33 42 62 52 66 19 6 25 34 8 34 -5 0 -10 4 -10 8 0 5 7 9 15 9
9 0 15 -10 15 -24 0 -13 4 -22 10 -18 5 3 6 13 3 21 -3 9 0 20 8 25 11 6 11
13 3 26 -14 22 -44 29 -44 11z"/>
<path d="M5465 1710 c-4 -6 -11 -8 -16 -5 -5 4 -9 1 -9 -4 0 -6 -9 -11 -20
-11 -23 0 -23 0 -10 -34 5 -14 15 -26 22 -25 10 0 10 2 1 6 -7 2 -13 14 -12
26 0 21 1 21 9 2 7 -17 9 -17 9 -3 1 11 6 15 16 12 8 -4 15 -1 15 6 0 7 6 10
14 7 10 -4 12 0 9 14 -6 21 -18 25 -28 9z"/>
<path d="M6523 1694 c-12 -13 -19 -24 -15 -24 3 0 1 -5 -6 -12 -15 -15 -16
-48 -1 -48 5 0 8 -4 4 -9 -3 -5 -1 -12 5 -16 5 -3 10 -1 10 5 0 7 7 10 15 6
14 -5 21 12 15 39 -1 6 12 -3 29 -19 17 -17 31 -27 31 -23 0 15 -30 79 -48
101 l-18 24 -21 -24z"/>
<path d="M5539 1687 c6 -8 8 -17 4 -20 -3 -4 1 -7 10 -7 10 0 17 -4 17 -10 0
-5 5 -10 11 -10 6 0 9 10 7 23 -2 15 -9 21 -20 19 -10 -2 -18 2 -18 8 0 5 -5
10 -11 10 -8 0 -9 -4 0 -13z"/>
<path d="M5495 1659 c-5 -8 -4 -10 3 -5 7 4 12 2 12 -3 0 -6 -4 -11 -10 -11
-5 0 -7 -6 -4 -14 3 -8 13 -12 25 -9 10 3 16 9 13 14 -3 5 2 6 10 3 9 -3 16
-1 16 5 0 6 -8 11 -18 11 -10 0 -23 5 -29 11 -8 8 -13 7 -18 -2z"/>
<path d="M5464 1634 c3 -9 6 -21 6 -27 0 -8 3 -8 10 -1 12 12 3 44 -12 44 -6
0 -7 -7 -4 -16z"/>
<path d="M5392 1615 c9 -9 68 -12 68 -4 0 5 -16 9 -37 9 -20 0 -34 -2 -31 -5z"/>
<path d="M6126 1575 c14 -21 34 -26 34 -9 0 3 -4 3 -9 -1 -5 -3 -12 4 -16 15
-3 11 -11 20 -16 20 -5 0 -2 -11 7 -25z"/>
<path d="M5430 1556 c0 -2 8 -10 18 -17 15 -13 16 -12 3 4 -13 16 -21 21 -21
13z"/>
<path d="M6404 1541 c4 -5 1 -12 -4 -14 -6 -3 -5 -4 2 -3 15 3 23 26 8 26 -6
0 -9 -4 -6 -9z"/>
<path d="M5425 1520 c-4 -6 -11 -8 -16 -5 -5 4 -9 1 -9 -4 0 -16 16 -13 30 4
7 8 10 15 7 15 -3 0 -9 -5 -12 -10z"/>
<path d="M6188 1473 c-17 -21 -40 -74 -35 -79 2 -3 16 18 30 46 28 53 29 61 5
33z"/>
<path d="M5555 1410 c3 -5 8 -10 11 -10 2 0 4 5 4 10 0 6 -5 10 -11 10 -5 0
-7 -4 -4 -10z"/>
<path d="M5585 1411 c-3 -5 -1 -12 5 -16 5 -3 10 1 10 9 0 18 -6 21 -15 7z"/>
<path d="M6180 1395 c-7 -9 -8 -15 -2 -15 5 0 12 7 16 15 3 8 4 15 2 15 -2 0
-9 -7 -16 -15z"/>
<path d="M5491 1372 c-1 -20 18 -52 32 -52 9 0 9 2 0 8 -7 4 -16 19 -22 32 -5
14 -10 19 -10 12z"/>
<path d="M5537 1339 c7 -7 15 -10 18 -7 3 3 -2 9 -12 12 -14 6 -15 5 -6 -5z"/>
<path d="M5423 1333 c-20 -7 -15 -19 7 -20 11 -1 20 2 20 7 0 12 -13 18 -27
13z"/>
<path d="M5966 1325 c7 -17 30 -20 39 -5 3 6 -1 7 -9 4 -9 -3 -16 -1 -16 5 0
6 -4 11 -10 11 -5 0 -7 -7 -4 -15z"/>
<path d="M5454 1305 c-4 -8 -10 -12 -15 -9 -5 3 -9 1 -9 -5 0 -5 9 -9 19 -8
12 1 19 8 18 19 -2 22 -6 23 -13 3z"/>
<path d="M5510 1306 c0 -2 7 -9 15 -16 13 -11 14 -10 9 4 -5 14 -24 23 -24 12z"/>
<path d="M6170 1252 c0 -6 -8 -13 -17 -15 -16 -4 -16 -5 -1 -6 18 -1 34 16 24
26 -3 4 -6 1 -6 -5z"/>
<path d="M5240 1245 c0 -7 30 -13 34 -7 3 4 -4 9 -15 9 -10 1 -19 0 -19 -2z"/>
<path d="M5290 1230 c-9 -6 -10 -10 -3 -10 6 0 15 5 18 10 8 12 4 12 -15 0z"/>
<path d="M5280 1200 c-8 -5 -12 -11 -9 -14 2 -3 11 -1 19 4 8 5 12 11 9 14 -2
3 -11 1 -19 -4z"/>
<path d="M6066 1153 c-6 -14 -5 -15 5 -6 7 7 10 15 7 18 -3 3 -9 -2 -12 -12z"/>
</g>
</svg>
